<svg width="14" height="14" viewBox="0 0 14 14" fill="none" xmlns="http://www.w3.org/2000/svg">
<path d="M8.16699 3.49984H12.8337M10.5003 1.1665L10.5003 5.83317" stroke="#141B34" stroke-width="0.875" stroke-linecap="round" stroke-linejoin="round"/>
<path d="M3.55797 11.3748C2.79957 11.3002 2.23143 11.0724 1.85041 10.6913C1.16699 10.0079 1.16699 8.90798 1.16699 6.70809V6.41642C1.16699 4.21654 1.16699 3.11659 1.85041 2.43317C2.53383 1.74976 3.63377 1.74976 5.83366 1.74976H6.70866M3.79199 10.4998C3.67214 11.0842 3.13731 12.3469 3.68448 12.7544C3.97049 12.9625 4.42624 12.7402 5.33775 12.2958C5.97746 11.9838 6.62479 11.6261 7.32384 11.4652C7.57966 11.4069 7.84005 11.382 8.16699 11.3748C10.3669 11.3748 11.4668 11.3748 12.1502 10.6913C12.8028 10.0388 12.8323 9.00658 12.8336 6.99976" stroke="#141B34" stroke-width="0.875" stroke-linecap="round"/>
</svg>
