<svg width="725" height="560" viewBox="0 0 725 560" fill="none" xmlns="http://www.w3.org/2000/svg">
<g clip-path="url(#clip0_1248_7804)">
<rect x="0.5" width="724" height="560" rx="15" fill="#D9EFF9"/>
<g filter="url(#filter0_d_1248_7804)">
<rect x="-348" y="45" width="1030" height="473" rx="11" fill="#FAFAFA" shape-rendering="crispEdges"/>
<rect x="-352" y="41" width="1038" height="481" rx="15" stroke="white" stroke-opacity="0.39" stroke-width="8" shape-rendering="crispEdges"/>
<path d="M-348 121C-348 112.716 -341.284 106 -333 106H667C675.284 106 682 112.716 682 121V518H-348V121Z" fill="white"/>
<path d="M-15.8189 445H-16.8757C-16.9382 444.696 -17.0476 444.429 -17.2038 444.199C-17.3572 443.969 -17.5447 443.776 -17.7663 443.619C-17.9851 443.46 -18.228 443.341 -18.495 443.261C-18.7621 443.182 -19.0405 443.142 -19.3303 443.142C-19.8587 443.142 -20.3374 443.276 -20.7663 443.543C-21.1925 443.81 -21.532 444.203 -21.7848 444.723C-22.0348 445.243 -22.1598 445.881 -22.1598 446.636C-22.1598 447.392 -22.0348 448.03 -21.7848 448.55C-21.532 449.07 -21.1925 449.463 -20.7663 449.73C-20.3374 449.997 -19.8587 450.131 -19.3303 450.131C-19.0405 450.131 -18.7621 450.091 -18.495 450.011C-18.228 449.932 -17.9851 449.814 -17.7663 449.658C-17.5447 449.499 -17.3572 449.304 -17.2038 449.074C-17.0476 448.841 -16.9382 448.574 -16.8757 448.273H-15.8189C-15.8984 448.719 -16.0433 449.118 -16.2536 449.47C-16.4638 449.822 -16.7251 450.122 -17.0376 450.369C-17.3501 450.614 -17.701 450.8 -18.0902 450.928C-18.4766 451.055 -18.8899 451.119 -19.3303 451.119C-20.0746 451.119 -20.7365 450.938 -21.3161 450.574C-21.8956 450.21 -22.3516 449.693 -22.6839 449.023C-23.0163 448.352 -23.1825 447.557 -23.1825 446.636C-23.1825 445.716 -23.0163 444.92 -22.6839 444.25C-22.3516 443.58 -21.8956 443.062 -21.3161 442.699C-20.7365 442.335 -20.0746 442.153 -19.3303 442.153C-18.8899 442.153 -18.4766 442.217 -18.0902 442.345C-17.701 442.473 -17.3501 442.661 -17.0376 442.908C-16.7251 443.152 -16.4638 443.45 -16.2536 443.803C-16.0433 444.152 -15.8984 444.551 -15.8189 445ZM-10.1225 448.324V444.455H-9.11683V451H-10.1225V449.892H-10.1907C-10.3441 450.224 -10.5827 450.507 -10.9066 450.74C-11.2305 450.97 -11.6396 451.085 -12.1339 451.085C-12.543 451.085 -12.9066 450.996 -13.2248 450.817C-13.543 450.635 -13.793 450.362 -13.9748 449.999C-14.1566 449.632 -14.2475 449.17 -14.2475 448.614V444.455H-13.2418V448.545C-13.2418 449.023 -13.1083 449.403 -12.8413 449.688C-12.5714 449.972 -12.2276 450.114 -11.81 450.114C-11.56 450.114 -11.3058 450.05 -11.0472 449.922C-10.7859 449.794 -10.5671 449.598 -10.391 449.334C-10.212 449.07 -10.1225 448.733 -10.1225 448.324ZM-7.27486 451V444.455H-6.30327V445.443H-6.23509C-6.11577 445.119 -5.89986 444.857 -5.58736 444.655C-5.27486 444.453 -4.92259 444.352 -4.53054 444.352C-4.45668 444.352 -4.36435 444.354 -4.25355 444.357C-4.14276 444.359 -4.05895 444.364 -4.00213 444.369V445.392C-4.03622 445.384 -4.11435 445.371 -4.23651 445.354C-4.35582 445.334 -4.48224 445.324 -4.61577 445.324C-4.93395 445.324 -5.21804 445.391 -5.46804 445.524C-5.7152 445.655 -5.91122 445.837 -6.05611 446.07C-6.19815 446.3 -6.26918 446.562 -6.26918 446.858V451H-7.27486ZM-2.81001 451V444.455H-1.83842V445.443H-1.77024C-1.65092 445.119 -1.43501 444.857 -1.12251 444.655C-0.810014 444.453 -0.457741 444.352 -0.0656958 444.352C0.00816774 444.352 0.100497 444.354 0.211293 444.357C0.322088 444.359 0.405895 444.364 0.462713 444.369V445.392C0.428622 445.384 0.350497 445.371 0.228338 445.354C0.10902 445.334 -0.0174004 445.324 -0.150923 445.324C-0.469105 445.324 -0.753196 445.391 -1.0032 445.524C-1.25036 445.655 -1.44638 445.837 -1.59126 446.07C-1.73331 446.3 -1.80433 446.562 -1.80433 446.858V451H-2.81001ZM4.19993 451.136C3.56925 451.136 3.02521 450.997 2.56783 450.719C2.11328 450.438 1.76243 450.045 1.51527 449.543C1.27095 449.037 1.14879 448.449 1.14879 447.778C1.14879 447.108 1.27095 446.517 1.51527 446.006C1.76243 445.491 2.10618 445.091 2.54652 444.804C2.9897 444.514 3.50675 444.369 4.09766 444.369C4.43857 444.369 4.77521 444.426 5.1076 444.54C5.43999 444.653 5.74254 444.838 6.01527 445.094C6.288 445.347 6.50533 445.682 6.66726 446.099C6.82919 446.517 6.91016 447.031 6.91016 447.642V448.068H1.8647V447.199H5.88743C5.88743 446.83 5.81357 446.5 5.66584 446.21C5.52095 445.92 5.31357 445.692 5.04368 445.524C4.77663 445.357 4.46129 445.273 4.09766 445.273C3.69709 445.273 3.3505 445.372 3.05788 445.571C2.76811 445.767 2.5451 446.023 2.38885 446.338C2.2326 446.653 2.15447 446.991 2.15447 447.352V447.932C2.15447 448.426 2.2397 448.845 2.41016 449.189C2.58345 449.53 2.82351 449.79 3.13033 449.969C3.43715 450.145 3.79368 450.233 4.19993 450.233C4.46413 450.233 4.70277 450.196 4.91584 450.122C5.13175 450.045 5.31783 449.932 5.47408 449.781C5.63033 449.628 5.75107 449.437 5.83629 449.21L6.80788 449.483C6.70561 449.812 6.53374 450.102 6.29226 450.352C6.05078 450.599 5.75249 450.793 5.39737 450.932C5.04226 451.068 4.64311 451.136 4.19993 451.136ZM9.44567 447.062V451H8.43999V444.455H9.41158V445.477H9.4968C9.65021 445.145 9.88317 444.878 10.1957 444.676C10.5082 444.472 10.9116 444.369 11.4059 444.369C11.8491 444.369 12.2369 444.46 12.5692 444.642C12.9016 444.821 13.1602 445.094 13.3448 445.46C13.5295 445.824 13.6218 446.284 13.6218 446.841V451H12.6161V446.909C12.6161 446.395 12.4826 445.994 12.2156 445.707C11.9485 445.418 11.582 445.273 11.1161 445.273C10.7951 445.273 10.5082 445.342 10.2553 445.482C10.0053 445.621 9.80788 445.824 9.663 446.091C9.51811 446.358 9.44567 446.682 9.44567 447.062ZM18.3061 444.455V445.307H14.9141V444.455H18.3061ZM15.9027 442.886H16.9084V449.125C16.9084 449.409 16.9496 449.622 17.032 449.764C17.1172 449.903 17.2251 449.997 17.3558 450.045C17.4893 450.091 17.63 450.114 17.7777 450.114C17.8885 450.114 17.9794 450.108 18.0504 450.097C18.1214 450.082 18.1783 450.071 18.2209 450.062L18.4254 450.966C18.3572 450.991 18.2621 451.017 18.1399 451.043C18.0178 451.071 17.8629 451.085 17.6754 451.085C17.3913 451.085 17.1129 451.024 16.8402 450.902C16.5703 450.78 16.3459 450.594 16.1669 450.344C15.9908 450.094 15.9027 449.778 15.9027 449.398V442.886Z" fill="black" fill-opacity="0.4"/>
<path d="M156.119 444.455C156.067 444.023 155.86 443.688 155.496 443.449C155.133 443.21 154.687 443.091 154.158 443.091C153.772 443.091 153.434 443.153 153.144 443.278C152.857 443.403 152.633 443.575 152.471 443.794C152.312 444.013 152.232 444.261 152.232 444.54C152.232 444.773 152.288 444.973 152.398 445.141C152.512 445.305 152.657 445.443 152.833 445.554C153.009 445.662 153.194 445.751 153.387 445.822C153.58 445.891 153.758 445.946 153.92 445.989L154.806 446.227C155.033 446.287 155.286 446.369 155.565 446.474C155.846 446.58 156.114 446.723 156.37 446.905C156.629 447.084 156.842 447.314 157.009 447.595C157.177 447.876 157.261 448.222 157.261 448.631C157.261 449.102 157.137 449.528 156.89 449.909C156.646 450.29 156.288 450.592 155.816 450.817C155.347 451.041 154.778 451.153 154.107 451.153C153.482 451.153 152.941 451.053 152.484 450.851C152.029 450.649 151.671 450.368 151.41 450.007C151.151 449.646 151.005 449.227 150.971 448.75H152.062C152.09 449.08 152.201 449.352 152.394 449.568C152.59 449.781 152.837 449.94 153.136 450.045C153.437 450.148 153.761 450.199 154.107 450.199C154.511 450.199 154.873 450.134 155.194 450.003C155.515 449.869 155.769 449.685 155.957 449.449C156.144 449.21 156.238 448.932 156.238 448.614C156.238 448.324 156.157 448.088 155.995 447.906C155.833 447.724 155.62 447.577 155.356 447.463C155.092 447.349 154.806 447.25 154.499 447.165L153.425 446.858C152.744 446.662 152.204 446.382 151.806 446.018C151.408 445.655 151.21 445.179 151.21 444.591C151.21 444.102 151.342 443.676 151.606 443.312C151.873 442.946 152.231 442.662 152.68 442.46C153.131 442.256 153.636 442.153 154.192 442.153C154.755 442.153 155.255 442.254 155.692 442.456C156.13 442.655 156.477 442.928 156.732 443.274C156.991 443.621 157.127 444.014 157.141 444.455H156.119ZM162.987 448.324V444.455H163.993V451H162.987V449.892H162.919C162.765 450.224 162.527 450.507 162.203 450.74C161.879 450.97 161.47 451.085 160.975 451.085C160.566 451.085 160.203 450.996 159.885 450.817C159.566 450.635 159.316 450.362 159.135 449.999C158.953 449.632 158.862 449.17 158.862 448.614V444.455H159.868V448.545C159.868 449.023 160.001 449.403 160.268 449.688C160.538 449.972 160.882 450.114 161.299 450.114C161.549 450.114 161.804 450.05 162.062 449.922C162.324 449.794 162.542 449.598 162.718 449.334C162.897 449.07 162.987 448.733 162.987 448.324ZM165.971 451V442.273H166.977V445.494H167.062C167.136 445.381 167.238 445.236 167.369 445.06C167.502 444.881 167.692 444.722 167.94 444.582C168.19 444.44 168.528 444.369 168.954 444.369C169.505 444.369 169.991 444.507 170.411 444.783C170.832 445.058 171.16 445.449 171.396 445.955C171.631 446.46 171.749 447.057 171.749 447.744C171.749 448.438 171.631 449.038 171.396 449.547C171.16 450.053 170.833 450.445 170.415 450.723C169.998 450.999 169.516 451.136 168.971 451.136C168.55 451.136 168.214 451.067 167.961 450.928C167.708 450.786 167.513 450.625 167.377 450.446C167.241 450.264 167.136 450.114 167.062 449.994H166.942V451H165.971ZM166.96 447.727C166.96 448.222 167.032 448.658 167.177 449.036C167.322 449.411 167.533 449.705 167.812 449.918C168.09 450.128 168.431 450.233 168.835 450.233C169.255 450.233 169.606 450.122 169.887 449.901C170.171 449.676 170.384 449.375 170.526 448.997C170.671 448.616 170.744 448.193 170.744 447.727C170.744 447.267 170.673 446.852 170.531 446.483C170.391 446.111 170.18 445.817 169.896 445.601C169.614 445.382 169.261 445.273 168.835 445.273C168.425 445.273 168.082 445.376 167.803 445.584C167.525 445.788 167.315 446.075 167.173 446.445C167.031 446.811 166.96 447.239 166.96 447.727ZM177.924 445.92L177.021 446.176C176.964 446.026 176.88 445.879 176.769 445.737C176.661 445.592 176.513 445.473 176.326 445.379C176.138 445.286 175.898 445.239 175.606 445.239C175.205 445.239 174.871 445.331 174.604 445.516C174.34 445.697 174.208 445.929 174.208 446.21C174.208 446.46 174.299 446.658 174.481 446.803C174.663 446.947 174.947 447.068 175.333 447.165L176.305 447.403C176.89 447.545 177.326 447.763 177.613 448.055C177.9 448.345 178.043 448.719 178.043 449.176C178.043 449.551 177.935 449.886 177.719 450.182C177.506 450.477 177.208 450.71 176.825 450.881C176.441 451.051 175.995 451.136 175.487 451.136C174.819 451.136 174.266 450.991 173.829 450.702C173.391 450.412 173.114 449.989 172.998 449.432L173.952 449.193C174.043 449.545 174.215 449.81 174.468 449.986C174.724 450.162 175.058 450.25 175.469 450.25C175.938 450.25 176.31 450.151 176.586 449.952C176.864 449.75 177.004 449.509 177.004 449.227C177.004 449 176.924 448.81 176.765 448.656C176.606 448.5 176.362 448.384 176.032 448.307L174.941 448.051C174.342 447.909 173.901 447.689 173.62 447.391C173.342 447.089 173.202 446.713 173.202 446.261C173.202 445.892 173.306 445.565 173.513 445.281C173.724 444.997 174.009 444.774 174.37 444.612C174.734 444.45 175.146 444.369 175.606 444.369C176.254 444.369 176.762 444.511 177.131 444.795C177.504 445.08 177.768 445.455 177.924 445.92ZM182.404 444.455V445.307H179.012V444.455H182.404ZM180 442.886H181.006V449.125C181.006 449.409 181.047 449.622 181.13 449.764C181.215 449.903 181.323 449.997 181.453 450.045C181.587 450.091 181.728 450.114 181.875 450.114C181.986 450.114 182.077 450.108 182.148 450.097C182.219 450.082 182.276 450.071 182.319 450.062L182.523 450.966C182.455 450.991 182.36 451.017 182.238 451.043C182.115 451.071 181.961 451.085 181.773 451.085C181.489 451.085 181.211 451.024 180.938 450.902C180.668 450.78 180.444 450.594 180.265 450.344C180.088 450.094 180 449.778 180 449.398V442.886ZM185.843 451.153C185.428 451.153 185.051 451.075 184.713 450.919C184.375 450.76 184.107 450.531 183.908 450.233C183.709 449.932 183.61 449.568 183.61 449.142C183.61 448.767 183.684 448.463 183.831 448.23C183.979 447.994 184.176 447.81 184.424 447.676C184.671 447.543 184.944 447.443 185.242 447.378C185.543 447.31 185.846 447.256 186.15 447.216C186.547 447.165 186.87 447.126 187.117 447.101C187.367 447.072 187.549 447.026 187.662 446.96C187.779 446.895 187.837 446.781 187.837 446.619V446.585C187.837 446.165 187.722 445.838 187.492 445.605C187.265 445.372 186.919 445.256 186.456 445.256C185.976 445.256 185.6 445.361 185.327 445.571C185.054 445.781 184.863 446.006 184.752 446.244L183.797 445.903C183.968 445.506 184.195 445.196 184.479 444.974C184.766 444.75 185.078 444.594 185.417 444.506C185.757 444.415 186.093 444.369 186.422 444.369C186.632 444.369 186.874 444.395 187.147 444.446C187.422 444.494 187.688 444.595 187.944 444.749C188.202 444.902 188.417 445.134 188.587 445.443C188.757 445.753 188.843 446.168 188.843 446.688V451H187.837V450.114H187.786C187.718 450.256 187.604 450.408 187.445 450.57C187.286 450.732 187.074 450.869 186.81 450.983C186.546 451.097 186.223 451.153 185.843 451.153ZM185.996 450.25C186.394 450.25 186.729 450.172 187.002 450.016C187.277 449.859 187.485 449.658 187.624 449.411C187.766 449.163 187.837 448.903 187.837 448.631V447.71C187.794 447.761 187.701 447.808 187.556 447.851C187.414 447.891 187.249 447.926 187.061 447.957C186.877 447.986 186.696 448.011 186.52 448.034C186.347 448.054 186.206 448.071 186.098 448.085C185.837 448.119 185.593 448.175 185.365 448.251C185.141 448.325 184.959 448.437 184.82 448.588C184.684 448.736 184.615 448.937 184.615 449.193C184.615 449.543 184.745 449.807 185.003 449.986C185.265 450.162 185.596 450.25 185.996 450.25ZM191.684 447.062V451H190.678V444.455H191.65V445.477H191.735C191.888 445.145 192.121 444.878 192.434 444.676C192.746 444.472 193.15 444.369 193.644 444.369C194.087 444.369 194.475 444.46 194.808 444.642C195.14 444.821 195.398 445.094 195.583 445.46C195.768 445.824 195.86 446.284 195.86 446.841V451H194.854V446.909C194.854 446.395 194.721 445.994 194.454 445.707C194.187 445.418 193.82 445.273 193.354 445.273C193.033 445.273 192.746 445.342 192.494 445.482C192.244 445.621 192.046 445.824 191.901 446.091C191.756 446.358 191.684 446.682 191.684 447.062ZM200.169 451.136C199.624 451.136 199.142 450.999 198.725 450.723C198.307 450.445 197.98 450.053 197.745 449.547C197.509 449.038 197.391 448.438 197.391 447.744C197.391 447.057 197.509 446.46 197.745 445.955C197.98 445.449 198.309 445.058 198.729 444.783C199.15 444.507 199.635 444.369 200.186 444.369C200.613 444.369 200.949 444.44 201.196 444.582C201.446 444.722 201.637 444.881 201.767 445.06C201.901 445.236 202.005 445.381 202.078 445.494H202.164V442.273H203.169V451H202.198V449.994H202.078C202.005 450.114 201.9 450.264 201.763 450.446C201.627 450.625 201.432 450.786 201.179 450.928C200.926 451.067 200.59 451.136 200.169 451.136ZM200.306 450.233C200.709 450.233 201.05 450.128 201.328 449.918C201.607 449.705 201.819 449.411 201.963 449.036C202.108 448.658 202.181 448.222 202.181 447.727C202.181 447.239 202.11 446.811 201.968 446.445C201.826 446.075 201.615 445.788 201.337 445.584C201.059 445.376 200.715 445.273 200.306 445.273C199.88 445.273 199.525 445.382 199.24 445.601C198.959 445.817 198.748 446.111 198.605 446.483C198.466 446.852 198.397 447.267 198.397 447.727C198.397 448.193 198.468 448.616 198.61 448.997C198.755 449.375 198.968 449.676 199.249 449.901C199.533 450.122 199.885 450.233 200.306 450.233ZM207.077 451.153C206.662 451.153 206.286 451.075 205.948 450.919C205.61 450.76 205.341 450.531 205.142 450.233C204.944 449.932 204.844 449.568 204.844 449.142C204.844 448.767 204.918 448.463 205.066 448.23C205.213 447.994 205.411 447.81 205.658 447.676C205.905 447.543 206.178 447.443 206.476 447.378C206.777 447.31 207.08 447.256 207.384 447.216C207.782 447.165 208.104 447.126 208.351 447.101C208.601 447.072 208.783 447.026 208.897 446.96C209.013 446.895 209.071 446.781 209.071 446.619V446.585C209.071 446.165 208.956 445.838 208.726 445.605C208.499 445.372 208.154 445.256 207.691 445.256C207.211 445.256 206.834 445.361 206.561 445.571C206.289 445.781 206.097 446.006 205.986 446.244L205.032 445.903C205.202 445.506 205.429 445.196 205.713 444.974C206 444.75 206.313 444.594 206.651 444.506C206.992 444.415 207.327 444.369 207.657 444.369C207.867 444.369 208.108 444.395 208.381 444.446C208.657 444.494 208.922 444.595 209.178 444.749C209.436 444.902 209.651 445.134 209.821 445.443C209.992 445.753 210.077 446.168 210.077 446.688V451H209.071V450.114H209.02C208.952 450.256 208.838 450.408 208.679 450.57C208.52 450.732 208.309 450.869 208.044 450.983C207.78 451.097 207.458 451.153 207.077 451.153ZM207.23 450.25C207.628 450.25 207.963 450.172 208.236 450.016C208.512 449.859 208.719 449.658 208.858 449.411C209 449.163 209.071 448.903 209.071 448.631V447.71C209.029 447.761 208.935 447.808 208.79 447.851C208.648 447.891 208.483 447.926 208.296 447.957C208.111 447.986 207.931 448.011 207.755 448.034C207.581 448.054 207.441 448.071 207.333 448.085C207.071 448.119 206.827 448.175 206.6 448.251C206.375 448.325 206.194 448.437 206.054 448.588C205.918 448.736 205.85 448.937 205.85 449.193C205.85 449.543 205.979 449.807 206.238 449.986C206.499 450.162 206.83 450.25 207.23 450.25ZM211.913 451V444.455H212.884V445.443H212.952C213.072 445.119 213.288 444.857 213.6 444.655C213.913 444.453 214.265 444.352 214.657 444.352C214.731 444.352 214.823 444.354 214.934 444.357C215.045 444.359 215.129 444.364 215.185 444.369V445.392C215.151 445.384 215.073 445.371 214.951 445.354C214.832 445.334 214.705 445.324 214.572 445.324C214.254 445.324 213.969 445.391 213.719 445.524C213.472 445.655 213.276 445.837 213.131 446.07C212.989 446.3 212.918 446.562 212.918 446.858V451H211.913ZM218.65 451.136C218.104 451.136 217.623 450.999 217.205 450.723C216.788 450.445 216.461 450.053 216.225 449.547C215.989 449.038 215.871 448.438 215.871 447.744C215.871 447.057 215.989 446.46 216.225 445.955C216.461 445.449 216.789 445.058 217.21 444.783C217.63 444.507 218.116 444.369 218.667 444.369C219.093 444.369 219.43 444.44 219.677 444.582C219.927 444.722 220.117 444.881 220.248 445.06C220.381 445.236 220.485 445.381 220.559 445.494H220.644V442.273H221.65V451H220.678V449.994H220.559C220.485 450.114 220.38 450.264 220.244 450.446C220.107 450.625 219.913 450.786 219.66 450.928C219.407 451.067 219.07 451.136 218.65 451.136ZM218.786 450.233C219.19 450.233 219.531 450.128 219.809 449.918C220.087 449.705 220.299 449.411 220.444 449.036C220.589 448.658 220.661 448.222 220.661 447.727C220.661 447.239 220.59 446.811 220.448 446.445C220.306 446.075 220.096 445.788 219.817 445.584C219.539 445.376 219.195 445.273 218.786 445.273C218.36 445.273 218.005 445.382 217.721 445.601C217.44 445.817 217.228 446.111 217.086 446.483C216.947 446.852 216.877 447.267 216.877 447.727C216.877 448.193 216.948 448.616 217.09 448.997C217.235 449.375 217.448 449.676 217.729 449.901C218.013 450.122 218.366 450.233 218.786 450.233Z" fill="black" fill-opacity="0.4"/>
<path d="M354.893 451H352.199V442.273H355.012C355.858 442.273 356.583 442.447 357.185 442.797C357.787 443.143 358.249 443.642 358.57 444.293C358.891 444.94 359.052 445.716 359.052 446.619C359.052 447.528 358.89 448.311 358.566 448.967C358.242 449.621 357.77 450.124 357.151 450.476C356.532 450.825 355.779 451 354.893 451ZM353.256 450.062H354.824C355.546 450.062 356.144 449.923 356.618 449.645C357.093 449.366 357.447 448.97 357.68 448.456C357.912 447.942 358.029 447.33 358.029 446.619C358.029 445.915 357.914 445.308 357.684 444.8C357.454 444.288 357.11 443.896 356.653 443.624C356.195 443.348 355.626 443.21 354.944 443.21H353.256V450.062ZM363.347 451.136C362.756 451.136 362.238 450.996 361.792 450.714C361.349 450.433 361.002 450.04 360.752 449.534C360.505 449.028 360.381 448.437 360.381 447.761C360.381 447.08 360.505 446.484 360.752 445.976C361.002 445.467 361.349 445.072 361.792 444.791C362.238 444.51 362.756 444.369 363.347 444.369C363.938 444.369 364.455 444.51 364.898 444.791C365.344 445.072 365.691 445.467 365.938 445.976C366.188 446.484 366.313 447.08 366.313 447.761C366.313 448.437 366.188 449.028 365.938 449.534C365.691 450.04 365.344 450.433 364.898 450.714C364.455 450.996 363.938 451.136 363.347 451.136ZM363.347 450.233C363.796 450.233 364.165 450.118 364.455 449.888C364.745 449.658 364.959 449.355 365.099 448.98C365.238 448.605 365.307 448.199 365.307 447.761C365.307 447.324 365.238 446.916 365.099 446.538C364.959 446.161 364.745 445.855 364.455 445.622C364.165 445.389 363.796 445.273 363.347 445.273C362.898 445.273 362.529 445.389 362.239 445.622C361.949 445.855 361.735 446.161 361.596 446.538C361.456 446.916 361.387 447.324 361.387 447.761C361.387 448.199 361.456 448.605 361.596 448.98C361.735 449.355 361.949 449.658 362.239 449.888C362.529 450.118 362.898 450.233 363.347 450.233ZM371.973 448.324V444.455H372.979V451H371.973V449.892H371.905C371.752 450.224 371.513 450.507 371.189 450.74C370.865 450.97 370.456 451.085 369.962 451.085C369.553 451.085 369.189 450.996 368.871 450.817C368.553 450.635 368.303 450.362 368.121 449.999C367.939 449.632 367.848 449.17 367.848 448.614V444.455H368.854V448.545C368.854 449.023 368.987 449.403 369.254 449.688C369.524 449.972 369.868 450.114 370.286 450.114C370.536 450.114 370.79 450.05 371.048 449.922C371.31 449.794 371.529 449.598 371.705 449.334C371.884 449.07 371.973 448.733 371.973 448.324ZM374.957 451V442.273H375.963V445.494H376.048C376.122 445.381 376.224 445.236 376.355 445.06C376.488 444.881 376.679 444.722 376.926 444.582C377.176 444.44 377.514 444.369 377.94 444.369C378.491 444.369 378.977 444.507 379.398 444.783C379.818 445.058 380.146 445.449 380.382 445.955C380.618 446.46 380.736 447.057 380.736 447.744C380.736 448.438 380.618 449.038 380.382 449.547C380.146 450.053 379.819 450.445 379.402 450.723C378.984 450.999 378.503 451.136 377.957 451.136C377.537 451.136 377.2 451.067 376.947 450.928C376.694 450.786 376.5 450.625 376.363 450.446C376.227 450.264 376.122 450.114 376.048 449.994H375.929V451H374.957ZM375.946 447.727C375.946 448.222 376.018 448.658 376.163 449.036C376.308 449.411 376.52 449.705 376.798 449.918C377.077 450.128 377.417 450.233 377.821 450.233C378.241 450.233 378.592 450.122 378.873 449.901C379.157 449.676 379.371 449.375 379.513 448.997C379.657 448.616 379.73 448.193 379.73 447.727C379.73 447.267 379.659 446.852 379.517 446.483C379.378 446.111 379.166 445.817 378.882 445.601C378.601 445.382 378.247 445.273 377.821 445.273C377.412 445.273 377.068 445.376 376.79 445.584C376.511 445.788 376.301 446.075 376.159 446.445C376.017 446.811 375.946 447.239 375.946 447.727ZM385.121 444.455V445.307H381.729V444.455H385.121ZM382.717 442.886H383.723V449.125C383.723 449.409 383.764 449.622 383.846 449.764C383.932 449.903 384.04 449.997 384.17 450.045C384.304 450.091 384.444 450.114 384.592 450.114C384.703 450.114 384.794 450.108 384.865 450.097C384.936 450.082 384.993 450.071 385.035 450.062L385.24 450.966C385.172 450.991 385.077 451.017 384.954 451.043C384.832 451.071 384.677 451.085 384.49 451.085C384.206 451.085 383.927 451.024 383.655 450.902C383.385 450.78 383.16 450.594 382.981 450.344C382.805 450.094 382.717 449.778 382.717 449.398V442.886ZM389.548 444.455V445.307H386.02V444.455H389.548ZM387.077 451V443.551C387.077 443.176 387.165 442.864 387.341 442.614C387.517 442.364 387.746 442.176 388.027 442.051C388.308 441.926 388.605 441.864 388.917 441.864C389.165 441.864 389.366 441.884 389.523 441.923C389.679 441.963 389.795 442 389.872 442.034L389.582 442.903C389.531 442.886 389.46 442.865 389.369 442.839C389.281 442.814 389.165 442.801 389.02 442.801C388.687 442.801 388.447 442.885 388.3 443.053C388.155 443.22 388.082 443.466 388.082 443.79V451H387.077ZM395.083 448.324V444.455H396.088V451H395.083V449.892H395.014C394.861 450.224 394.622 450.507 394.298 450.74C393.975 450.97 393.566 451.085 393.071 451.085C392.662 451.085 392.298 450.996 391.98 450.817C391.662 450.635 391.412 450.362 391.23 449.999C391.048 449.632 390.958 449.17 390.958 448.614V444.455H391.963V448.545C391.963 449.023 392.097 449.403 392.364 449.688C392.634 449.972 392.977 450.114 393.395 450.114C393.645 450.114 393.899 450.05 394.158 449.922C394.419 449.794 394.638 449.598 394.814 449.334C394.993 449.07 395.083 448.733 395.083 448.324ZM398.936 442.273V451H397.93V442.273H398.936Z" fill="black" fill-opacity="0.4"/>
<path d="M552.332 451V442.273H553.389V450.062H557.446V451H552.332ZM561.605 451.136C561.014 451.136 560.496 450.996 560.05 450.714C559.606 450.433 559.26 450.04 559.01 449.534C558.763 449.028 558.639 448.437 558.639 447.761C558.639 447.08 558.763 446.484 559.01 445.976C559.26 445.467 559.606 445.072 560.05 444.791C560.496 444.51 561.014 444.369 561.605 444.369C562.196 444.369 562.713 444.51 563.156 444.791C563.602 445.072 563.949 445.467 564.196 445.976C564.446 446.484 564.571 447.08 564.571 447.761C564.571 448.437 564.446 449.028 564.196 449.534C563.949 450.04 563.602 450.433 563.156 450.714C562.713 450.996 562.196 451.136 561.605 451.136ZM561.605 450.233C562.054 450.233 562.423 450.118 562.713 449.888C563.003 449.658 563.217 449.355 563.356 448.98C563.496 448.605 563.565 448.199 563.565 447.761C563.565 447.324 563.496 446.916 563.356 446.538C563.217 446.161 563.003 445.855 562.713 445.622C562.423 445.389 562.054 445.273 561.605 445.273C561.156 445.273 560.787 445.389 560.497 445.622C560.207 445.855 559.993 446.161 559.854 446.538C559.714 446.916 559.645 447.324 559.645 447.761C559.645 448.199 559.714 448.605 559.854 448.98C559.993 449.355 560.207 449.658 560.497 449.888C560.787 450.118 561.156 450.233 561.605 450.233ZM570.742 445.92L569.839 446.176C569.782 446.026 569.698 445.879 569.588 445.737C569.48 445.592 569.332 445.473 569.144 445.379C568.957 445.286 568.717 445.239 568.424 445.239C568.024 445.239 567.69 445.331 567.423 445.516C567.159 445.697 567.026 445.929 567.026 446.21C567.026 446.46 567.117 446.658 567.299 446.803C567.481 446.947 567.765 447.068 568.151 447.165L569.123 447.403C569.708 447.545 570.144 447.763 570.431 448.055C570.718 448.345 570.862 448.719 570.862 449.176C570.862 449.551 570.754 449.886 570.538 450.182C570.325 450.477 570.026 450.71 569.643 450.881C569.259 451.051 568.813 451.136 568.305 451.136C567.637 451.136 567.085 450.991 566.647 450.702C566.21 450.412 565.933 449.989 565.816 449.432L566.771 449.193C566.862 449.545 567.034 449.81 567.286 449.986C567.542 450.162 567.876 450.25 568.288 450.25C568.757 450.25 569.129 450.151 569.404 449.952C569.683 449.75 569.822 449.509 569.822 449.227C569.822 449 569.742 448.81 569.583 448.656C569.424 448.5 569.18 448.384 568.85 448.307L567.759 448.051C567.16 447.909 566.72 447.689 566.438 447.391C566.16 447.089 566.021 446.713 566.021 446.261C566.021 445.892 566.124 445.565 566.332 445.281C566.542 444.997 566.828 444.774 567.188 444.612C567.552 444.45 567.964 444.369 568.424 444.369C569.072 444.369 569.58 444.511 569.95 444.795C570.322 445.08 570.586 445.455 570.742 445.92ZM577.012 445.92L576.108 446.176C576.052 446.026 575.968 445.879 575.857 445.737C575.749 445.592 575.601 445.473 575.414 445.379C575.226 445.286 574.986 445.239 574.694 445.239C574.293 445.239 573.959 445.331 573.692 445.516C573.428 445.697 573.296 445.929 573.296 446.21C573.296 446.46 573.387 446.658 573.569 446.803C573.751 446.947 574.035 447.068 574.421 447.165L575.393 447.403C575.978 447.545 576.414 447.763 576.701 448.055C576.988 448.345 577.131 448.719 577.131 449.176C577.131 449.551 577.023 449.886 576.807 450.182C576.594 450.477 576.296 450.71 575.912 450.881C575.529 451.051 575.083 451.136 574.574 451.136C573.907 451.136 573.354 450.991 572.917 450.702C572.479 450.412 572.202 449.989 572.086 449.432L573.04 449.193C573.131 449.545 573.303 449.81 573.556 449.986C573.812 450.162 574.145 450.25 574.557 450.25C575.026 450.25 575.398 450.151 575.674 449.952C575.952 449.75 576.091 449.509 576.091 449.227C576.091 449 576.012 448.81 575.853 448.656C575.694 448.5 575.449 448.384 575.12 448.307L574.029 448.051C573.43 447.909 572.989 447.689 572.708 447.391C572.43 447.089 572.29 446.713 572.29 446.261C572.29 445.892 572.394 445.565 572.601 445.281C572.812 444.997 573.097 444.774 573.458 444.612C573.822 444.45 574.233 444.369 574.694 444.369C575.341 444.369 575.85 444.511 576.219 444.795C576.591 445.08 576.856 445.455 577.012 445.92Z" fill="black" fill-opacity="0.4"/>
<rect x="417" y="55" width="244" height="40" rx="6" fill="#EEEEEE"/>
<rect x="533" y="58" width="124" height="34" rx="4" fill="white"/>
<path d="M549.98 80V69.92H553.907C554.509 69.92 555.022 70.0437 555.447 70.291C555.876 70.5383 556.203 70.865 556.427 71.271C556.656 71.6723 556.77 72.1063 556.77 72.573C556.77 73.119 556.63 73.5973 556.35 74.008C556.07 74.4187 555.692 74.701 555.216 74.855L555.202 74.512C555.851 74.6847 556.355 75.002 556.714 75.464C557.073 75.926 557.253 76.4767 557.253 77.116C557.253 77.704 557.132 78.2127 556.889 78.642C556.651 79.0713 556.306 79.405 555.853 79.643C555.405 79.881 554.873 80 554.257 80H549.98ZM551.24 78.81H554.019C554.392 78.81 554.726 78.7423 555.02 78.607C555.314 78.467 555.545 78.271 555.713 78.019C555.886 77.767 555.972 77.4637 555.972 77.109C555.972 76.7683 555.895 76.4627 555.741 76.192C555.592 75.9213 555.379 75.7067 555.104 75.548C554.833 75.3847 554.518 75.303 554.159 75.303H551.24V78.81ZM551.24 74.127H553.893C554.192 74.127 554.46 74.064 554.698 73.938C554.941 73.8073 555.132 73.6253 555.272 73.392C555.417 73.1587 555.489 72.8857 555.489 72.573C555.489 72.139 555.342 71.7843 555.048 71.509C554.754 71.2337 554.369 71.096 553.893 71.096H551.24V74.127ZM562.792 80.21C561.789 80.21 560.937 79.9883 560.237 79.545C559.537 79.1017 559.003 78.4857 558.634 77.697C558.27 76.9083 558.088 75.996 558.088 74.96C558.088 73.924 558.27 73.0117 558.634 72.223C559.003 71.4343 559.537 70.8183 560.237 70.375C560.937 69.9317 561.789 69.71 562.792 69.71C563.8 69.71 564.654 69.9317 565.354 70.375C566.054 70.8183 566.586 71.4343 566.95 72.223C567.314 73.0117 567.496 73.924 567.496 74.96C567.496 75.996 567.314 76.9083 566.95 77.697C566.586 78.4857 566.054 79.1017 565.354 79.545C564.654 79.9883 563.8 80.21 562.792 80.21ZM562.792 79.02C563.543 79.0247 564.169 78.8567 564.668 78.516C565.172 78.1707 565.548 77.6923 565.795 77.081C566.047 76.4697 566.173 75.7627 566.173 74.96C566.173 74.1527 566.047 73.4457 565.795 72.839C565.548 72.2323 565.172 71.7587 564.668 71.418C564.169 71.0773 563.543 70.9047 562.792 70.9C562.041 70.8953 561.415 71.0633 560.916 71.404C560.421 71.7447 560.048 72.2207 559.796 72.832C559.544 73.4433 559.416 74.1527 559.411 74.96C559.406 75.7627 559.53 76.4673 559.782 77.074C560.034 77.6807 560.41 78.1567 560.909 78.502C561.413 78.8427 562.041 79.0153 562.792 79.02ZM572.983 80.21C572.292 80.21 571.662 80.0887 571.093 79.846C570.524 79.6033 570.034 79.2557 569.623 78.803C569.212 78.3457 568.895 77.795 568.671 77.151C568.452 76.5023 568.342 75.772 568.342 74.96C568.342 73.8867 568.533 72.958 568.916 72.174C569.299 71.39 569.838 70.7857 570.533 70.361C571.228 69.9317 572.045 69.717 572.983 69.717C574.112 69.717 575.022 69.9807 575.713 70.508C576.404 71.0307 576.88 71.747 577.141 72.657L575.881 72.916C575.671 72.3047 575.326 71.817 574.845 71.453C574.364 71.089 573.765 70.907 573.046 70.907C572.295 70.9023 571.669 71.0703 571.17 71.411C570.675 71.747 570.302 72.2207 570.05 72.832C569.798 73.4433 569.67 74.1527 569.665 74.96C569.66 75.7627 569.784 76.4673 570.036 77.074C570.288 77.6807 570.664 78.1567 571.163 78.502C571.667 78.8427 572.295 79.0153 573.046 79.02C573.695 79.0247 574.241 78.901 574.684 78.649C575.127 78.397 575.47 78.033 575.713 77.557C575.956 77.081 576.103 76.5093 576.154 75.842H574.012V74.813H577.47C577.484 74.9063 577.491 75.0183 577.491 75.149C577.496 75.275 577.498 75.3613 577.498 75.408C577.498 76.3273 577.325 77.151 576.98 77.879C576.639 78.6023 576.133 79.1717 575.461 79.587C574.794 80.0023 573.968 80.21 572.983 80.21ZM584.555 80.203C583.654 80.203 582.914 80.007 582.336 79.615C581.762 79.2183 581.409 78.6653 581.279 77.956L582.553 77.753C582.655 78.1637 582.891 78.4903 583.26 78.733C583.628 78.971 584.086 79.09 584.632 79.09C585.15 79.09 585.556 78.9827 585.85 78.768C586.144 78.5533 586.291 78.2617 586.291 77.893C586.291 77.6783 586.242 77.5057 586.144 77.375C586.046 77.2397 585.843 77.1137 585.535 76.997C585.231 76.8803 584.772 76.7403 584.156 76.577C583.488 76.3997 582.963 76.2153 582.581 76.024C582.198 75.8327 581.925 75.611 581.762 75.359C581.598 75.107 581.517 74.8013 581.517 74.442C581.517 73.9987 581.638 73.6113 581.881 73.28C582.123 72.944 582.462 72.685 582.896 72.503C583.334 72.321 583.843 72.23 584.422 72.23C584.996 72.23 585.509 72.321 585.962 72.503C586.414 72.685 586.778 72.944 587.054 73.28C587.334 73.6113 587.499 73.9987 587.551 74.442L586.277 74.673C586.216 74.267 586.02 73.9473 585.689 73.714C585.362 73.4807 584.94 73.357 584.422 73.343C583.932 73.3243 583.533 73.4107 583.225 73.602C582.921 73.7933 582.77 74.0523 582.77 74.379C582.77 74.561 582.826 74.7173 582.938 74.848C583.054 74.9787 583.267 75.1023 583.575 75.219C583.887 75.3357 584.34 75.4687 584.933 75.618C585.6 75.786 586.125 75.9703 586.508 76.171C586.895 76.367 587.17 76.6003 587.334 76.871C587.497 77.137 587.579 77.466 587.579 77.858C587.579 78.586 587.31 79.16 586.774 79.58C586.237 79.9953 585.497 80.203 584.555 80.203ZM591.993 80.196C591.507 80.196 591.09 80.119 590.74 79.965C590.394 79.811 590.107 79.6057 589.879 79.349C589.65 79.0923 589.47 78.8077 589.34 78.495C589.209 78.1823 589.116 77.8627 589.06 77.536C589.008 77.2093 588.983 76.9037 588.983 76.619V72.44H590.243V76.227C590.243 76.5817 590.275 76.9247 590.341 77.256C590.406 77.5873 590.516 77.886 590.67 78.152C590.828 78.418 591.038 78.628 591.3 78.782C591.566 78.936 591.897 79.013 592.294 79.013C592.606 79.013 592.891 78.9593 593.148 78.852C593.404 78.7447 593.624 78.586 593.806 78.376C593.988 78.1613 594.128 77.8907 594.226 77.564C594.324 77.2373 594.373 76.857 594.373 76.423L595.192 76.675C595.192 77.403 595.059 78.0307 594.793 78.558C594.531 79.0853 594.16 79.4913 593.68 79.776C593.204 80.056 592.641 80.196 591.993 80.196ZM594.513 80V77.977H594.373V72.44H595.626V80H594.513ZM606.622 80L606.629 75.163C606.629 74.5983 606.478 74.1573 606.174 73.84C605.876 73.518 605.486 73.357 605.005 73.357C604.725 73.357 604.459 73.4223 604.207 73.553C603.955 73.679 603.75 73.8797 603.591 74.155C603.433 74.4257 603.353 74.7733 603.353 75.198L602.695 74.932C602.686 74.3953 602.796 73.9263 603.024 73.525C603.258 73.119 603.575 72.804 603.976 72.58C604.378 72.356 604.83 72.244 605.334 72.244C606.123 72.244 606.744 72.4843 607.196 72.965C607.649 73.441 607.875 74.0827 607.875 74.89L607.868 80H606.622ZM597.578 80V72.44H598.691V74.463H598.831V80H597.578ZM602.107 80L602.114 75.212C602.114 74.6333 601.965 74.1807 601.666 73.854C601.368 73.5227 600.971 73.357 600.476 73.357C599.986 73.357 599.59 73.525 599.286 73.861C598.983 74.197 598.831 74.6427 598.831 75.198L598.173 74.806C598.173 74.316 598.29 73.8773 598.523 73.49C598.757 73.1027 599.074 72.7993 599.475 72.58C599.877 72.356 600.332 72.244 600.84 72.244C601.349 72.244 601.792 72.3513 602.17 72.566C602.548 72.7807 602.84 73.0887 603.045 73.49C603.251 73.8867 603.353 74.3603 603.353 74.911L603.346 80H602.107ZM618.736 80L618.743 75.163C618.743 74.5983 618.591 74.1573 618.288 73.84C617.989 73.518 617.599 73.357 617.119 73.357C616.839 73.357 616.573 73.4223 616.321 73.553C616.069 73.679 615.863 73.8797 615.705 74.155C615.546 74.4257 615.467 74.7733 615.467 75.198L614.809 74.932C614.799 74.3953 614.909 73.9263 615.138 73.525C615.371 73.119 615.688 72.804 616.09 72.58C616.491 72.356 616.944 72.244 617.448 72.244C618.236 72.244 618.857 72.4843 619.31 72.965C619.762 73.441 619.989 74.0827 619.989 74.89L619.982 80H618.736ZM609.692 80V72.44H610.805V74.463H610.945V80H609.692ZM614.221 80L614.228 75.212C614.228 74.6333 614.078 74.1807 613.78 73.854C613.481 73.5227 613.084 73.357 612.59 73.357C612.1 73.357 611.703 73.525 611.4 73.861C611.096 74.197 610.945 74.6427 610.945 75.198L610.287 74.806C610.287 74.316 610.403 73.8773 610.637 73.49C610.87 73.1027 611.187 72.7993 611.589 72.58C611.99 72.356 612.445 72.244 612.954 72.244C613.462 72.244 613.906 72.3513 614.284 72.566C614.662 72.7807 614.953 73.0887 615.159 73.49C615.364 73.8867 615.467 74.3603 615.467 74.911L615.46 80H614.221ZM623.961 80.21C623.396 80.21 622.923 80.1073 622.54 79.902C622.162 79.692 621.875 79.4167 621.679 79.076C621.488 78.7353 621.392 78.362 621.392 77.956C621.392 77.5593 621.467 77.2163 621.616 76.927C621.77 76.633 621.985 76.3903 622.26 76.199C622.535 76.003 622.864 75.849 623.247 75.737C623.606 75.639 624.008 75.555 624.451 75.485C624.899 75.4103 625.352 75.3427 625.809 75.282C626.266 75.2213 626.693 75.163 627.09 75.107L626.642 75.366C626.656 74.694 626.521 74.197 626.236 73.875C625.956 73.553 625.471 73.392 624.78 73.392C624.323 73.392 623.921 73.497 623.576 73.707C623.235 73.9123 622.995 74.2483 622.855 74.715L621.672 74.358C621.854 73.6953 622.206 73.175 622.729 72.797C623.252 72.419 623.94 72.23 624.794 72.23C625.48 72.23 626.068 72.3537 626.558 72.601C627.053 72.8437 627.407 73.2123 627.622 73.707C627.729 73.9403 627.797 74.1947 627.825 74.47C627.853 74.7407 627.867 75.0253 627.867 75.324V80H626.761V78.187L627.02 78.355C626.735 78.9663 626.336 79.4283 625.823 79.741C625.314 80.0537 624.694 80.21 623.961 80.21ZM624.15 79.167C624.598 79.167 624.985 79.0877 625.312 78.929C625.643 78.7657 625.909 78.5533 626.11 78.292C626.311 78.026 626.441 77.7367 626.502 77.424C626.572 77.1907 626.609 76.9317 626.614 76.647C626.623 76.3577 626.628 76.136 626.628 75.982L627.062 76.171C626.656 76.227 626.257 76.2807 625.865 76.332C625.473 76.3833 625.102 76.4393 624.752 76.5C624.402 76.556 624.087 76.6237 623.807 76.703C623.602 76.7683 623.408 76.8523 623.226 76.955C623.049 77.0577 622.904 77.1907 622.792 77.354C622.685 77.5127 622.631 77.711 622.631 77.949C622.631 78.1543 622.682 78.3503 622.785 78.537C622.892 78.7237 623.056 78.8753 623.275 78.992C623.499 79.1087 623.791 79.167 624.15 79.167ZM629.687 80V72.44H630.8V74.267L630.618 74.029C630.707 73.7957 630.821 73.581 630.961 73.385C631.106 73.189 631.267 73.028 631.444 72.902C631.64 72.7433 631.862 72.622 632.109 72.538C632.356 72.454 632.608 72.405 632.865 72.391C633.122 72.3723 633.362 72.3887 633.586 72.44V73.609C633.325 73.539 633.038 73.5203 632.725 73.553C632.412 73.5857 632.123 73.7 631.857 73.896C631.614 74.0687 631.425 74.2787 631.29 74.526C631.159 74.7733 631.068 75.0417 631.017 75.331C630.966 75.6157 630.94 75.9073 630.94 76.206V80H629.687ZM635.823 83.36L637.286 79.384L637.307 80.56L634.003 72.44H635.312L637.902 78.971H637.454L639.883 72.44H641.15L637.034 83.36H635.823Z" fill="#1E1E1E"/>
<path d="M431.98 80V69.92H438.35V71.103H433.226V74.26H437.51V75.443H433.226V78.817H438.35V80H431.98ZM443.821 80.21C442.818 80.21 441.966 79.9883 441.266 79.545C440.566 79.1017 440.032 78.4857 439.663 77.697C439.299 76.9083 439.117 75.996 439.117 74.96C439.117 73.924 439.299 73.0117 439.663 72.223C440.032 71.4343 440.566 70.8183 441.266 70.375C441.966 69.9317 442.818 69.71 443.821 69.71C444.988 69.71 445.947 70.0063 446.698 70.599C447.454 71.1917 447.975 71.9897 448.259 72.993L446.992 73.329C446.787 72.5777 446.421 71.985 445.893 71.551C445.366 71.117 444.675 70.9 443.821 70.9C443.07 70.9 442.445 71.0703 441.945 71.411C441.446 71.7517 441.07 72.2277 440.818 72.839C440.566 73.4457 440.438 74.1527 440.433 74.96C440.429 75.7627 440.552 76.4697 440.804 77.081C441.056 77.6877 441.434 78.1637 441.938 78.509C442.442 78.8497 443.07 79.02 443.821 79.02C444.675 79.02 445.366 78.803 445.893 78.369C446.421 77.9303 446.787 77.3377 446.992 76.591L448.259 76.927C447.975 77.9257 447.454 78.7237 446.698 79.321C445.947 79.9137 444.988 80.21 443.821 80.21ZM449.934 80V69.92H451.18V78.817H455.856V80H449.934ZM462.723 80.21C462.009 80.21 461.365 80.0887 460.791 79.846C460.222 79.6033 459.75 79.258 459.377 78.81C459.008 78.3573 458.768 77.823 458.656 77.207L459.944 77.004C460.107 77.6387 460.446 78.1357 460.959 78.495C461.477 78.8497 462.086 79.027 462.786 79.027C463.239 79.027 463.647 78.957 464.011 78.817C464.38 78.6723 464.671 78.467 464.886 78.201C465.101 77.935 465.208 77.62 465.208 77.256C465.208 77.032 465.168 76.8407 465.089 76.682C465.014 76.5187 464.909 76.381 464.774 76.269C464.643 76.1523 464.494 76.0543 464.326 75.975C464.158 75.8957 463.983 75.8303 463.801 75.779L461.232 75.016C460.952 74.932 460.681 74.827 460.42 74.701C460.159 74.5703 459.925 74.4093 459.72 74.218C459.515 74.022 459.351 73.7887 459.23 73.518C459.109 73.2427 459.048 72.9183 459.048 72.545C459.048 71.9477 459.202 71.439 459.51 71.019C459.823 70.5943 460.245 70.27 460.777 70.046C461.309 69.822 461.909 69.7123 462.576 69.717C463.253 69.7217 463.857 69.843 464.389 70.081C464.926 70.3143 465.369 70.6503 465.719 71.089C466.074 71.5277 466.312 72.0527 466.433 72.664L465.11 72.895C465.04 72.4843 464.884 72.132 464.641 71.838C464.403 71.5393 464.104 71.3107 463.745 71.152C463.386 70.9887 462.991 70.9047 462.562 70.9C462.151 70.8953 461.78 70.9607 461.449 71.096C461.118 71.2313 460.854 71.4203 460.658 71.663C460.462 71.901 460.364 72.1763 460.364 72.489C460.364 72.797 460.453 73.0467 460.63 73.238C460.807 73.4247 461.024 73.574 461.281 73.686C461.542 73.7933 461.797 73.882 462.044 73.952L463.962 74.505C464.181 74.5657 464.433 74.6497 464.718 74.757C465.007 74.8643 465.287 75.016 465.558 75.212C465.829 75.4033 466.053 75.66 466.23 75.982C466.407 76.2993 466.496 76.7007 466.496 77.186C466.496 77.6713 466.398 78.103 466.202 78.481C466.011 78.859 465.742 79.1763 465.397 79.433C465.052 79.685 464.65 79.8763 464.193 80.007C463.736 80.1423 463.246 80.21 462.723 80.21ZM470.834 80.196C470.349 80.196 469.931 80.119 469.581 79.965C469.236 79.811 468.949 79.6057 468.72 79.349C468.492 79.0923 468.312 78.8077 468.181 78.495C468.051 78.1823 467.957 77.8627 467.901 77.536C467.85 77.2093 467.824 76.9037 467.824 76.619V72.44H469.084V76.227C469.084 76.5817 469.117 76.9247 469.182 77.256C469.248 77.5873 469.357 77.886 469.511 78.152C469.67 78.418 469.88 78.628 470.141 78.782C470.407 78.936 470.739 79.013 471.135 79.013C471.448 79.013 471.733 78.9593 471.989 78.852C472.246 78.7447 472.465 78.586 472.647 78.376C472.829 78.1613 472.969 77.8907 473.067 77.564C473.165 77.2373 473.214 76.857 473.214 76.423L474.033 76.675C474.033 77.403 473.9 78.0307 473.634 78.558C473.373 79.0853 473.002 79.4913 472.521 79.776C472.045 80.056 471.483 80.196 470.834 80.196ZM473.354 80V77.977H473.214V72.44H474.467V80H473.354ZM485.464 80L485.471 75.163C485.471 74.5983 485.32 74.1573 485.016 73.84C484.718 73.518 484.328 73.357 483.847 73.357C483.567 73.357 483.301 73.4223 483.049 73.553C482.797 73.679 482.592 73.8797 482.433 74.155C482.275 74.4257 482.195 74.7733 482.195 75.198L481.537 74.932C481.528 74.3953 481.638 73.9263 481.866 73.525C482.1 73.119 482.417 72.804 482.818 72.58C483.22 72.356 483.672 72.244 484.176 72.244C484.965 72.244 485.586 72.4843 486.038 72.965C486.491 73.441 486.717 74.0827 486.717 74.89L486.71 80H485.464ZM476.42 80V72.44H477.533V74.463H477.673V80H476.42ZM480.949 80L480.956 75.212C480.956 74.6333 480.807 74.1807 480.508 73.854C480.21 73.5227 479.813 73.357 479.318 73.357C478.828 73.357 478.432 73.525 478.128 73.861C477.825 74.197 477.673 74.6427 477.673 75.198L477.015 74.806C477.015 74.316 477.132 73.8773 477.365 73.49C477.599 73.1027 477.916 72.7993 478.317 72.58C478.719 72.356 479.174 72.244 479.682 72.244C480.191 72.244 480.634 72.3513 481.012 72.566C481.39 72.7807 481.682 73.0887 481.887 73.49C482.093 73.8867 482.195 74.3603 482.195 74.911L482.188 80H480.949ZM497.578 80L497.585 75.163C497.585 74.5983 497.433 74.1573 497.13 73.84C496.831 73.518 496.441 73.357 495.961 73.357C495.681 73.357 495.415 73.4223 495.163 73.553C494.911 73.679 494.705 73.8797 494.547 74.155C494.388 74.4257 494.309 74.7733 494.309 75.198L493.651 74.932C493.641 74.3953 493.751 73.9263 493.98 73.525C494.213 73.119 494.53 72.804 494.932 72.58C495.333 72.356 495.786 72.244 496.29 72.244C497.078 72.244 497.699 72.4843 498.152 72.965C498.604 73.441 498.831 74.0827 498.831 74.89L498.824 80H497.578ZM488.534 80V72.44H489.647V74.463H489.787V80H488.534ZM493.063 80L493.07 75.212C493.07 74.6333 492.92 74.1807 492.622 73.854C492.323 73.5227 491.926 73.357 491.432 73.357C490.942 73.357 490.545 73.525 490.242 73.861C489.938 74.197 489.787 74.6427 489.787 75.198L489.129 74.806C489.129 74.316 489.245 73.8773 489.479 73.49C489.712 73.1027 490.029 72.7993 490.431 72.58C490.832 72.356 491.287 72.244 491.796 72.244C492.304 72.244 492.748 72.3513 493.126 72.566C493.504 72.7807 493.795 73.0887 494.001 73.49C494.206 73.8867 494.309 74.3603 494.309 74.911L494.302 80H493.063ZM502.803 80.21C502.238 80.21 501.764 80.1073 501.382 79.902C501.004 79.692 500.717 79.4167 500.521 79.076C500.329 78.7353 500.234 78.362 500.234 77.956C500.234 77.5593 500.308 77.2163 500.458 76.927C500.612 76.633 500.826 76.3903 501.102 76.199C501.377 76.003 501.706 75.849 502.089 75.737C502.448 75.639 502.849 75.555 503.293 75.485C503.741 75.4103 504.193 75.3427 504.651 75.282C505.108 75.2213 505.535 75.163 505.932 75.107L505.484 75.366C505.498 74.694 505.362 74.197 505.078 73.875C504.798 73.553 504.312 73.392 503.622 73.392C503.164 73.392 502.763 73.497 502.418 73.707C502.077 73.9123 501.837 74.2483 501.697 74.715L500.514 74.358C500.696 73.6953 501.048 73.175 501.571 72.797C502.093 72.419 502.782 72.23 503.636 72.23C504.322 72.23 504.91 72.3537 505.4 72.601C505.894 72.8437 506.249 73.2123 506.464 73.707C506.571 73.9403 506.639 74.1947 506.667 74.47C506.695 74.7407 506.709 75.0253 506.709 75.324V80H505.603V78.187L505.862 78.355C505.577 78.9663 505.178 79.4283 504.665 79.741C504.156 80.0537 503.535 80.21 502.803 80.21ZM502.992 79.167C503.44 79.167 503.827 79.0877 504.154 78.929C504.485 78.7657 504.751 78.5533 504.952 78.292C505.152 78.026 505.283 77.7367 505.344 77.424C505.414 77.1907 505.451 76.9317 505.456 76.647C505.465 76.3577 505.47 76.136 505.47 75.982L505.904 76.171C505.498 76.227 505.099 76.2807 504.707 76.332C504.315 76.3833 503.944 76.4393 503.594 76.5C503.244 76.556 502.929 76.6237 502.649 76.703C502.443 76.7683 502.25 76.8523 502.068 76.955C501.89 77.0577 501.746 77.1907 501.634 77.354C501.526 77.5127 501.473 77.711 501.473 77.949C501.473 78.1543 501.524 78.3503 501.627 78.537C501.734 78.7237 501.897 78.8753 502.117 78.992C502.341 79.1087 502.632 79.167 502.992 79.167ZM508.529 80V72.44H509.642V74.267L509.46 74.029C509.548 73.7957 509.663 73.581 509.803 73.385C509.947 73.189 510.108 73.028 510.286 72.902C510.482 72.7433 510.703 72.622 510.951 72.538C511.198 72.454 511.45 72.405 511.707 72.391C511.963 72.3723 512.204 72.3887 512.428 72.44V73.609C512.166 73.539 511.879 73.5203 511.567 73.553C511.254 73.5857 510.965 73.7 510.699 73.896C510.456 74.0687 510.267 74.2787 510.132 74.526C510.001 74.7733 509.91 75.0417 509.859 75.331C509.807 75.6157 509.782 75.9073 509.782 76.206V80H508.529ZM514.665 83.36L516.128 79.384L516.149 80.56L512.845 72.44H514.154L516.744 78.971H516.296L518.725 72.44H519.992L515.876 83.36H514.665Z" fill="#6F6F6F"/>
<g clip-path="url(#clip1_1248_7804)">
<rect width="55" height="196" transform="translate(-30 227)" fill="#166E94"/>
<rect width="55" height="107.349" transform="translate(-30 227)" fill="#F7941E"/>
</g>
<g clip-path="url(#clip2_1248_7804)">
<rect width="55" height="212" transform="translate(159 211)" fill="#166E94"/>
<rect width="55" height="107.349" transform="translate(159 211)" fill="#F7941E"/>
</g>
<g clip-path="url(#clip3_1248_7804)">
<rect width="55" height="266" transform="translate(348 157)" fill="#166E94"/>
<rect width="55" height="107.349" transform="translate(348 157)" fill="#F7941E"/>
</g>
<g clip-path="url(#clip4_1248_7804)">
<rect width="55" height="229" transform="translate(537 194)" fill="#166E94"/>
<rect width="55" height="107.349" transform="translate(537 194)" fill="#F7941E"/>
</g>
</g>
</g>
<defs>
<filter id="filter0_d_1248_7804" x="-372" y="29" width="1078" height="521" filterUnits="userSpaceOnUse" color-interpolation-filters="sRGB">
<feFlood flood-opacity="0" result="BackgroundImageFix"/>
<feColorMatrix in="SourceAlpha" type="matrix" values="0 0 0 0 0 0 0 0 0 0 0 0 0 0 0 0 0 0 127 0" result="hardAlpha"/>
<feOffset dy="8"/>
<feGaussianBlur stdDeviation="8"/>
<feComposite in2="hardAlpha" operator="out"/>
<feColorMatrix type="matrix" values="0 0 0 0 0 0 0 0 0 0 0 0 0 0 0 0 0 0 0.09 0"/>
<feBlend mode="normal" in2="BackgroundImageFix" result="effect1_dropShadow_1248_7804"/>
<feBlend mode="normal" in="SourceGraphic" in2="effect1_dropShadow_1248_7804" result="shape"/>
</filter>
<clipPath id="clip0_1248_7804">
<rect x="0.5" width="724" height="560" rx="15" fill="white"/>
</clipPath>
<clipPath id="clip1_1248_7804">
<rect width="55" height="196" fill="white" transform="translate(-30 227)"/>
</clipPath>
<clipPath id="clip2_1248_7804">
<rect width="55" height="212" fill="white" transform="translate(159 211)"/>
</clipPath>
<clipPath id="clip3_1248_7804">
<rect width="55" height="266" fill="white" transform="translate(348 157)"/>
</clipPath>
<clipPath id="clip4_1248_7804">
<rect width="55" height="229" fill="white" transform="translate(537 194)"/>
</clipPath>
</defs>
</svg>
