<svg width="14" height="14" viewBox="0 0 14 14" fill="none" xmlns="http://www.w3.org/2000/svg">
<g clip-path="url(#clip0_290_5158)">
<path d="M6.41797 7.58331H9.33464M4.66797 7.58331H4.67321M7.58464 9.91665H4.66797M9.33464 9.91665H9.3294" stroke="#6F6F6F" stroke-width="1.5" stroke-linecap="round" stroke-linejoin="round"/>
<path d="M10.5 1.16666V2.33332M3.5 1.16666V2.33332" stroke="#6F6F6F" stroke-width="1.5" stroke-linecap="round" stroke-linejoin="round"/>
<path d="M1.45898 7.14189C1.45898 4.60013 1.45898 3.32925 2.18939 2.53962C2.91979 1.75 4.09535 1.75 6.44648 1.75H7.55482C9.90595 1.75 11.0815 1.75 11.8119 2.53962C12.5423 3.32925 12.5423 4.60013 12.5423 7.14189V7.44144C12.5423 9.9832 12.5423 11.2541 11.8119 12.0437C11.0815 12.8333 9.90595 12.8333 7.55482 12.8333H6.44648C4.09535 12.8333 2.91979 12.8333 2.18939 12.0437C1.45898 11.2541 1.45898 9.9832 1.45898 7.44144V7.14189Z" stroke="#6F6F6F" stroke-width="1.5" stroke-linecap="round" stroke-linejoin="round"/>
<path d="M1.75 4.66666H12.25" stroke="#6F6F6F" stroke-width="1.5" stroke-linecap="round" stroke-linejoin="round"/>
</g>
<defs>
<clipPath id="clip0_290_5158">
<rect width="14" height="14" fill="white"/>
</clipPath>
</defs>
</svg>
