<svg width="14" height="15" viewBox="0 0 14 15" fill="none" xmlns="http://www.w3.org/2000/svg">
<path d="M11.375 3.70898L11.0135 9.55696C10.9211 11.0511 10.8749 11.7981 10.5004 12.3352C10.3153 12.6008 10.0769 12.8249 9.80041 12.9933C9.24123 13.334 8.49274 13.334 6.99577 13.334C5.49682 13.334 4.74734 13.334 4.18778 12.9927C3.91113 12.824 3.67266 12.5995 3.48757 12.3335C3.11318 11.7955 3.06801 11.0474 2.97769 9.55116L2.625 3.70898" stroke="#FF3B30" stroke-linecap="round"/>
<path d="M5.25 7.3457H8.75" stroke="#FF3B30" stroke-linecap="round"/>
<path d="M6.125 9.63184H7.875" stroke="#FF3B30" stroke-linecap="round"/>
<path d="M1.75 3.70866H12.25M9.36573 3.70866L8.9675 2.88717C8.70297 2.34148 8.57071 2.06863 8.34256 1.89846C8.29195 1.86072 8.23836 1.82714 8.18232 1.79807C7.92967 1.66699 7.62646 1.66699 7.02003 1.66699C6.39837 1.66699 6.08755 1.66699 5.8307 1.80356C5.77378 1.83383 5.71946 1.86876 5.66831 1.90801C5.43751 2.08507 5.30859 2.3679 5.05074 2.93356L4.69743 3.70866" stroke="#FF3B30" stroke-linecap="round"/>
</svg>
