<svg width="14" height="14" viewBox="0 0 14 14" fill="none" xmlns="http://www.w3.org/2000/svg">
<g clip-path="url(#clip0_42_14769)">
<path d="M8.20974 2.26684C8.64443 1.79587 8.86178 1.56039 9.09274 1.42303C9.65002 1.0916 10.3362 1.0813 10.9028 1.39585C11.1376 1.52621 11.3616 1.75506 11.8097 2.21277C12.2577 2.67048 12.4818 2.89933 12.6094 3.1392C12.9173 3.71798 12.9072 4.41895 12.5828 4.98824C12.4483 5.22417 12.2178 5.44619 11.7568 5.89025L6.27128 11.1737C5.39759 12.0152 4.96075 12.4359 4.41478 12.6492C3.86882 12.8624 3.26862 12.8467 2.06821 12.8153L1.90488 12.8111C1.53944 12.8015 1.35672 12.7967 1.25051 12.6762C1.14429 12.5556 1.15879 12.3695 1.18779 11.9973L1.20354 11.7951C1.28517 10.7474 1.32598 10.2235 1.53058 9.75262C1.73517 9.28171 2.08809 8.89935 2.79391 8.13462L8.20974 2.26684Z" stroke="#6F6F6F" stroke-width="0.8125" stroke-linejoin="round"/>
<path d="M7.5835 2.33301L11.6668 6.41634" stroke="#6F6F6F" stroke-width="0.8125" stroke-linejoin="round"/>
<path d="M8.16675 12.833L12.8334 12.833" stroke="#6F6F6F" stroke-width="0.8125" stroke-linecap="round" stroke-linejoin="round"/>
</g>
<defs>
<clipPath id="clip0_42_14769">
<rect width="14" height="14" fill="white"/>
</clipPath>
</defs>
</svg>
