<svg width="20" height="20" viewBox="0 0 20 20" fill="none" xmlns="http://www.w3.org/2000/svg">
<path d="M1.66797 9.58329C1.66797 5.85134 1.66797 3.98536 2.82734 2.82599C3.98671 1.66663 5.85268 1.66663 9.58464 1.66663C13.3166 1.66663 15.1826 1.66663 16.3419 2.82599C17.5013 3.98536 17.5013 5.85134 17.5013 9.58329C17.5013 13.3152 17.5013 15.1812 16.3419 16.3406C15.1826 17.5 13.3166 17.5 9.58464 17.5C5.85268 17.5 3.98671 17.5 2.82734 16.3406C1.66797 15.1812 1.66797 13.3152 1.66797 9.58329Z" stroke="#6F6F6F" stroke-width="1.25"/>
<path d="M7.08398 9.58331L12.084 9.58335" stroke="#6F6F6F" stroke-width="1.25" stroke-linecap="round" stroke-linejoin="round"/>
<path d="M7.91797 12.4999H11.2513" stroke="#6F6F6F" stroke-width="1.25" stroke-linecap="round" stroke-linejoin="round"/>
<path d="M6.25195 6.66663H12.9186" stroke="#6F6F6F" stroke-width="1.25" stroke-linecap="round" stroke-linejoin="round"/>
</svg>
