<svg width="14" height="15" viewBox="0 0 14 15" fill="none" xmlns="http://www.w3.org/2000/svg">
<path d="M2.3335 4.58301L2.3335 12.7497" stroke="#FF3B30" stroke-width="0.864198" stroke-linecap="round" stroke-linejoin="round"/>
<path d="M6.85875 2.78004C4.9307 1.7979 3.41339 2.37334 2.65682 2.9612C2.52044 3.06716 2.45225 3.12014 2.39287 3.24148C2.3335 3.36281 2.3335 3.47581 2.3335 3.7018V9.09362C2.89915 8.4533 4.59612 7.4608 6.85875 8.61338C8.88082 9.64342 10.6017 9.2164 11.4158 8.77139C11.5288 8.70964 11.5852 8.67877 11.626 8.60998C11.6668 8.54119 11.6668 8.46652 11.6668 8.31718V3.92644C11.6668 3.44314 11.6668 3.20149 11.5517 3.11395C11.4366 3.02641 11.1673 3.10109 10.6286 3.25044C9.70684 3.50603 8.36652 3.5481 6.85875 2.78004Z" stroke="#FF3B30" stroke-width="0.864198" stroke-linecap="round" stroke-linejoin="round"/>
</svg>
