<svg width="612" height="612" viewBox="0 0 612 612" fill="none" xmlns="http://www.w3.org/2000/svg">
<path d="M408.012 176.298C432.084 173.202 457.156 174.101 481.028 177.797C492.615 179.595 504.802 182.092 514.89 188.185C527.275 195.576 532.271 208.561 533.668 222.345C535.068 236.13 534.368 250.613 534.268 264.698V310.645C534.068 342.607 533.935 374.57 533.868 406.533L533.568 512.313C533.568 512.762 533.748 513.194 534.066 513.512C534.384 513.831 534.817 514.01 535.268 514.01C535.716 514.01 536.149 513.831 536.467 513.512C536.785 513.194 536.965 512.762 536.965 512.313C537.165 445.788 537.397 379.231 537.665 312.642V262.698C537.764 248.814 538.562 234.632 536.965 220.848C535.565 209.461 531.971 198.073 523.28 190.182C514.59 182.291 501.805 178.396 490.118 175.998C463.098 170.526 435.369 169.48 408.012 172.902C405.915 173.202 405.915 176.598 408.012 176.298Z" fill="#F7941E"/>
<path d="M537.165 464.767C536.765 452.282 536.066 439.796 535.168 427.411C538.563 415.524 539.162 403.239 538.563 390.552C537.865 373.773 536.865 356.992 535.966 340.211C535.068 323.43 534.768 308.446 536.166 292.365C536.765 284.374 537.465 276.283 537.465 268.293C537.465 264.298 537.265 260.302 536.865 256.308C536.696 254.458 536.394 252.622 535.966 250.814C536.569 249.219 536.875 247.526 536.865 245.818C536.365 234.931 535.866 223.645 533.769 212.958C532.8 208.011 530.753 203.339 527.775 199.273C525.402 195.848 522.34 192.957 518.787 190.782C517.491 188.989 515.863 187.463 513.991 186.287C511.579 184.895 508.881 184.074 506.1 183.89C504.809 182.995 503.397 182.288 501.906 181.793C495.213 179.296 486.422 175.999 478.431 176.199C476.957 175.011 475.131 174.344 473.238 174.301L447.768 173.702C446.856 173.737 445.953 173.871 445.071 174.102C435.981 172.903 426.491 173.602 417.303 173.702C408.113 173.802 406.715 182.791 411.209 188.385C415.704 193.979 421.597 193.08 426.691 194.178C431.787 195.277 436.981 196.476 442.075 197.475C447.168 198.473 449.765 198.773 452.662 201.77C455.559 204.767 460.953 208.162 464.647 211.958C465.645 212.978 466.881 213.733 468.244 214.155L469.243 215.255C470.802 216.864 472.585 218.243 474.537 219.349L474.937 219.849C476.035 221.646 477.834 224.643 479.731 225.842H479.831C479.923 225.997 479.99 226.165 480.031 226.342C481.161 229.07 482.497 231.707 484.025 234.233L484.925 235.63L485.824 238.127C486.822 242.024 487.522 245.918 488.321 249.914C488.782 251.793 489.15 253.693 489.419 255.608C487.822 257.905 489.519 260.802 489.919 263.799C489.756 264.674 489.452 265.516 489.019 266.296C488.821 267.593 489.419 269.292 489.019 270.49C488.287 273.962 487.181 277.344 485.724 280.58C485.268 281.228 484.992 281.987 484.925 282.777C484.941 282.95 484.906 283.124 484.825 283.277C483.095 285.592 481.591 288.067 480.331 290.668C479.731 291.967 479.231 293.264 478.531 294.464C477.834 295.661 476.734 296.861 477.134 296.561C476.353 297.442 475.518 298.277 474.637 299.058L472.738 300.655C470.633 302.259 468.631 303.993 466.746 305.849L459.853 308.546C457.356 309.546 452.562 311.143 450.265 313.442L447.268 313.94C444.272 314.54 441.375 315.539 438.378 316.339L434.782 317.236H432.684C432.884 317.336 432.884 317.336 432.585 317.236C432.285 317.137 431.787 317.137 432.485 317.137L429.288 315.739L427.99 315.239C424.494 313.94 420.799 313.642 417.103 313.242L414.006 313.042C412.038 311.416 409.71 310.286 407.215 309.746C404.337 306.686 400.491 304.711 396.328 304.152C386.238 302.755 377.347 309.546 374.453 319.036C372.254 326.027 373.953 333.718 373.853 340.911C373.753 348.102 373.053 354.495 372.354 361.186C371.656 367.879 370.756 377.567 370.456 385.758C363.565 386.558 356.972 388.555 350.379 390.652L338.194 394.548C334.697 395.646 330.703 397.545 327.106 397.745C323.51 397.945 319.016 397.545 315.419 400.942C311.825 404.336 311.625 408.333 312.622 412.527C313.573 416.179 314.705 419.779 316.019 423.314C314.622 427.311 319.615 430.707 320.113 433.802L320.813 435.601C323.406 443.16 325.409 450.907 326.806 458.774C327.629 462.819 328.867 466.771 330.503 470.561C331.9 473.558 334.097 476.055 334.497 479.451C334.897 482.846 335.497 492.136 331.9 495.832C330.003 497.83 327.306 499.027 325.109 500.626C322.008 502.809 319.279 505.473 317.019 508.517C312.822 514.111 318.716 521.102 324.509 521.402L327.706 521.602C328.604 522.601 330.003 525.198 331.301 525.498C342.888 527.895 354.575 527.195 366.46 527.195C368.276 527.244 370.046 526.642 371.456 525.498C390.034 526.496 408.612 526.995 427.191 526.995C429.353 526.971 431.489 526.528 433.484 525.698L479.231 526.596L504.403 526.995C508.097 527.095 511.894 527.295 515.59 527.195C523.381 526.895 529.972 523.599 534.368 517.108C538.762 510.614 537.965 498.429 537.865 489.639C537.765 480.849 537.465 473.058 537.165 464.767ZM503.503 503.023C502.903 505.12 503.603 504.423 503.503 503.023V503.023ZM505.202 314.34C505.402 313.642 505.402 313.84 505.202 314.34V314.34ZM520.584 193.479L519.984 192.58H520.084C520.984 194.079 521.084 194.378 520.584 193.479Z" fill="#F7941E"/>
<path d="M432.686 315.839L433.585 316.239H433.985L432.686 315.839Z" fill="#F7941E"/>
<path d="M212.039 524.698C216.435 524.698 216.435 517.907 212.039 517.907C207.645 517.907 207.645 524.698 212.039 524.698Z" fill="#F7941E"/>
<path d="M535.565 513.411C534.968 511.613 532.171 512.413 532.869 514.11C535.765 521.801 521.483 520.804 517.487 521.003L500.806 521.601L467.444 522.701C444.971 523.301 422.396 523.798 399.922 524.098C361.766 524.598 323.709 524.598 285.553 524.098C289.648 522.597 293.907 521.591 298.24 521.101C301.835 520.604 300.737 513.211 297.041 513.71C293.344 514.21 289.75 516.507 286.353 517.707C284.954 518.107 282.457 517.507 281.159 517.907C279.86 518.307 278.862 519.004 276.763 518.604H275.665C275.374 517.715 274.898 516.899 274.266 516.207C273.268 515.11 271.669 514.41 271.071 513.211C270.472 512.013 271.071 510.714 270.871 509.816C270.769 509.594 270.702 509.357 270.671 509.116C270.771 508.453 270.771 507.78 270.671 507.119C269.972 503.423 267.775 500.826 265.478 498.229C266.175 494.133 262.881 490.838 260.582 487.341C257.14 482.152 255.078 476.17 254.59 469.961C254.533 468.867 254.07 467.835 253.291 467.064C253.725 465.332 253.962 463.557 253.99 461.77C254.09 456.276 249.296 454.079 245.4 461.77C244.5 463.569 244.1 464.167 243.403 465.866C239.906 466.964 238.209 472.657 236.71 475.654C233.913 480.948 232.016 486.142 228.019 490.738C224.757 494.634 222.25 499.106 220.628 503.923C218.931 508.817 215.734 512.013 213.437 516.907C212.438 519.104 207.644 521.201 208.941 522.901C201.35 524.798 198.154 522.301 190.663 522.001C188.765 522.001 188.665 523.7 190.563 523.7C205.347 524.198 220.228 525.797 235.012 526.097C237.038 526.269 239.072 526.334 241.106 526.297C319.615 527.962 398.125 527.627 476.634 525.298L516.687 523.898C522.281 523.7 539.762 524.198 535.565 513.411Z" fill="#F7941E"/>
<path d="M398.223 300.955C385.736 299.955 379.144 308.446 375.948 319.533C371.654 334.617 370.754 350.498 370.654 365.98C370.254 400.242 371.254 434.502 372.451 468.661C373.051 487.939 373.951 507.317 374.848 526.695C375.048 528.892 378.445 528.892 378.345 526.695C376.215 486.609 374.883 446.589 374.351 406.633C374.051 387.555 373.351 368.277 374.648 349.299C375.228 339.55 376.768 329.88 379.244 320.433C382.041 310.843 387.335 303.452 398.223 304.352C400.42 304.552 400.32 301.155 398.223 300.955Z" fill="black"/>
<path d="M474.936 301.655C481.428 295.462 491.318 298.159 499.408 297.261C501.605 297.061 501.605 293.665 499.408 293.864C490.218 294.862 479.93 292.165 472.539 299.258C470.94 300.756 473.337 303.153 474.936 301.655Z" fill="black"/>
<path d="M423.895 316.836L425.594 383.66C425.594 384.111 425.773 384.541 426.092 384.86C426.41 385.178 426.84 385.358 427.291 385.358C427.742 385.358 428.174 385.178 428.493 384.86C428.811 384.541 428.99 384.111 428.99 383.66L427.291 316.836C427.291 316.387 427.114 315.955 426.793 315.636C426.475 315.318 426.045 315.139 425.594 315.139C425.143 315.139 424.711 315.318 424.392 315.636C424.074 315.955 423.895 316.387 423.895 316.836Z" fill="black"/>
<path d="M431.087 525.298C433.285 495.92 433.984 466.448 433.185 436.999C433.085 434.802 429.688 434.802 429.688 436.999C430.571 466.446 429.904 495.92 427.691 525.298C427.491 527.495 430.987 527.495 431.087 525.298Z" fill="black"/>
<path d="M432.884 432.804C433.037 431.266 432.935 429.714 432.584 428.208C432.084 426.011 428.79 426.911 429.287 429.108C429.557 430.322 429.624 431.57 429.487 432.804C429.512 433.247 429.699 433.665 430.012 433.977C430.326 434.291 430.744 434.477 431.187 434.501C431.637 434.501 432.068 434.322 432.386 434.004C432.704 433.686 432.884 433.253 432.884 432.804Z" fill="black"/>
<path d="M324.208 414.525H355.571C357.77 414.525 357.77 411.03 355.571 411.03H324.208C322.011 411.03 322.011 414.525 324.208 414.525Z" fill="black"/>
<path d="M163.494 488.839C164.793 480.149 170.986 472.958 175.58 465.767C180.175 458.574 184.77 450.183 188.865 442.093C189.864 440.196 186.867 438.398 185.868 440.395C181.558 449.033 176.79 457.436 171.585 465.567C167.09 472.658 161.397 479.451 160.198 487.942C159.898 490.139 163.195 491.036 163.494 488.839Z" fill="#F7941E"/>
<path d="M193.459 432.505C203.339 416.887 212.245 400.675 220.128 383.959C224.024 375.669 227.719 367.28 233.412 360.087C238.372 353.894 244.351 348.59 251.093 344.406C265.577 335.415 281.958 331.821 298.737 331.221C315.518 330.621 334.496 332.119 351.677 326.627C353.774 325.927 352.877 322.631 350.778 323.33C331.5 329.522 311.224 326.625 291.446 328.224C276.065 329.422 261.081 333.918 248.096 342.308C235.112 350.699 225.722 363.983 218.73 378.865C210.411 396.74 201.004 414.084 190.562 430.806C189.364 432.705 192.36 434.402 193.459 432.505Z" fill="#F7941E"/>
<path d="M360.568 332.22C342.788 339.311 323.809 342.208 305.231 346.602C297.34 348.401 289.15 350.298 282.059 354.293C274.966 358.289 268.972 364.882 263.379 370.974C251.41 384.048 240.708 398.23 231.416 413.326C221.928 428.908 214.935 445.689 204.147 460.373C198.619 467.788 193.991 475.836 190.363 484.345C186.268 493.933 182.672 503.723 175.68 511.613C174.282 513.211 176.679 515.708 178.077 514.01C188.765 502.023 191.861 486.042 199.952 472.557C204.647 464.767 210.64 457.974 215.334 450.283C220.029 442.592 223.425 434.301 227.719 426.511C236.41 410.686 246.648 395.764 258.285 381.961C263.778 375.37 269.572 368.677 276.065 362.983C282.557 357.289 291.547 353.495 300.837 351.198C321.113 346.002 341.99 343.305 361.466 335.514C363.465 334.717 362.665 331.42 360.568 332.22Z" fill="#F7941E"/>
<path d="M269.673 391.452C254.246 406.666 241.092 424.024 230.617 442.992C218.832 464.267 208.342 486.342 197.356 508.017C196.357 509.914 199.254 511.614 200.253 509.714C211.041 488.539 221.329 467.164 232.616 446.289C243.159 426.99 256.45 409.326 272.07 393.849C273.669 392.349 271.27 389.952 269.673 391.452Z" fill="#F7941E"/>
<path d="M299.639 383.061C310.928 384.101 322.271 381.735 332.201 376.268C334.099 375.17 332.401 372.173 330.504 373.271C321.088 378.446 310.335 380.672 299.639 379.664C297.442 379.464 297.442 382.861 299.639 383.061Z" fill="#F7941E"/>
<path d="M346.083 370.376C354.574 367.679 362.264 364.582 369.655 359.489C371.455 358.289 369.755 355.292 367.958 356.592C360.867 361.386 353.374 364.482 345.184 367.079C343.086 367.679 343.986 370.974 346.083 370.376Z" fill="#F7941E"/>
<path d="M261.282 438.098C262.681 447.785 266.575 457.376 270.072 466.564C273.569 475.754 277.563 484.944 281.859 493.832C282.757 495.832 285.753 494.132 284.756 492.135C280.36 482.845 276.265 473.457 272.669 463.867C269.072 454.279 265.976 446.288 264.578 437.198C264.178 435.001 260.882 435.9 261.282 438.098Z" fill="#F7941E"/>
<path d="M277.662 418.42C276.863 429.508 282.156 441.395 285.353 451.782C288.55 462.17 292.644 474.955 296.54 486.342C297.24 488.439 300.537 487.542 299.837 485.442C296.141 474.655 292.546 463.767 289.249 452.78L284.455 436.799C282.756 430.805 280.559 424.814 281.059 418.42C281.159 416.223 277.762 416.223 277.662 418.42Z" fill="#F7941E"/>
<path d="M292.546 402.14C297.44 414.424 302.334 426.811 307.428 439.096C308.227 441.095 311.524 440.196 310.724 438.199C305.63 425.912 300.736 413.527 295.74 401.24C294.943 399.243 291.646 400.042 292.546 402.14Z" fill="#F7941E"/>
<path d="M310.825 450.983C315.315 459.402 318.897 468.276 321.512 477.452C322.112 479.549 325.409 478.652 324.809 476.552C322.12 467.087 318.403 457.941 313.722 449.284C312.722 447.287 309.725 449.086 310.825 450.983Z" fill="#F7941E"/>
<path d="M370.855 162.515C384.698 163.928 398.279 167.256 411.208 172.404C442.273 184.49 470.24 206.764 467.743 211.858C467.045 213.058 464.646 211.358 460.552 212.758C435.38 220.749 417.502 232.436 410.309 248.617C408.911 251.612 410.708 253.311 409.411 255.808C405.515 263.299 392.83 261.702 380.643 263.899C360.167 267.495 358.468 278.88 337.593 287.171C330.502 289.968 301.134 301.955 291.846 291.667C288.149 287.571 289.649 274.486 292.743 248.617C294.443 234.733 295.142 233.233 293.643 229.739C287.252 214.855 261.081 213.855 261.38 205.565C261.485 204.178 262.129 202.885 263.178 201.97C303.233 156.023 370.855 162.515 370.855 162.515Z" fill="#166E94"/>
<path d="M136.923 527.095L145.513 526.895V523.898L180.672 524.698V526.895L180.872 552.866C180.872 554.323 180.293 555.72 179.263 556.751C178.233 557.781 176.835 558.36 175.378 558.36L123.238 558.958C122.687 558.972 122.139 558.876 121.625 558.678C121.111 558.479 120.641 558.181 120.242 557.801C119.843 557.422 119.523 556.965 119.3 556.461C119.077 555.957 118.956 555.414 118.943 554.864C118.444 539.582 121.44 527.295 136.923 527.095Z" fill="black"/>
<path d="M135.925 551.467C137.978 548.199 138.727 544.276 138.023 540.479C136.225 531.991 127.934 528.794 127.335 528.594" fill="black"/>
<path d="M154.805 541.58L141.221 531.69C140.959 531.527 140.659 531.439 140.35 531.433C140.043 531.427 139.739 531.506 139.472 531.659C139.205 531.814 138.985 532.037 138.836 532.306C138.686 532.575 138.613 532.881 138.624 533.189C138.624 535.886 139.323 540.38 138.324 542.977L140.421 541.78C137.924 541.08 135.028 538.283 133.03 536.886C131.032 535.486 127.936 533.589 126.138 531.192C124.34 528.793 121.843 531.192 123.141 532.989C125.024 535.223 127.249 537.145 129.734 538.683C132.63 540.68 136.026 544.177 139.522 545.076C139.955 545.131 140.394 545.046 140.773 544.829C141.152 544.613 141.449 544.279 141.62 543.877C142.719 540.88 142.02 536.286 142.02 533.189L139.422 534.687L153.107 544.577C154.905 545.874 156.603 542.877 154.805 541.58Z" fill="white"/>
<path d="M288.051 521.401L295.644 517.407L294.344 514.71L326.307 500.226L327.306 502.223L338.694 525.598C339.03 526.236 339.232 526.936 339.289 527.656C339.344 528.376 339.253 529.098 339.02 529.782C338.785 530.465 338.414 531.093 337.929 531.628C337.443 532.16 336.854 532.591 336.197 532.888L289.45 556.061C288.448 556.534 287.306 556.612 286.251 556.279C285.195 555.945 284.305 555.226 283.756 554.264C276.763 540.579 274.166 528.294 288.051 521.401Z" fill="black"/>
<path d="M338.593 522.702C338.266 522.41 337.895 522.175 337.493 522.002C337.277 521.941 337.051 521.925 336.828 521.953C336.606 521.98 336.39 522.051 336.194 522.163C336 522.275 335.829 522.424 335.692 522.602C335.553 522.779 335.453 522.983 335.396 523.199C335.196 523.999 330.602 527.396 329.902 527.896C327.205 529.993 324.509 529.393 321.412 530.093C315.718 531.29 313.421 534.987 309.027 538.083C304.631 541.18 299.037 540.18 294.443 542.08C292.599 542.869 290.934 544.024 289.549 545.474C285.953 548.971 283.056 549.77 278.062 549.77C275.865 549.77 275.865 553.265 278.062 553.265C281.008 553.424 283.957 553.016 286.752 552.068C289.549 550.868 290.847 548.571 293.144 546.774C298.24 542.577 305.93 544.577 311.224 540.68C313.921 538.683 315.518 536.086 318.615 534.587C321.712 533.089 325.108 533.689 328.405 532.69C331.7 531.69 332.399 530.193 334.197 528.495C335.996 526.796 338.193 525.896 338.693 524.099L336.596 525.299L336.893 525.599C338.693 526.896 340.39 523.999 338.593 522.702Z" fill="white"/>
<path d="M310.724 526.695L294.243 523.699C293.918 523.633 293.584 523.658 293.272 523.772C292.961 523.884 292.688 524.08 292.482 524.337C292.276 524.596 292.143 524.906 292.103 525.235C292.06 525.561 292.111 525.894 292.245 526.196C293.343 528.493 295.94 532.189 296.14 534.786L297.339 533.089C295.042 533.589 291.346 532.289 289.049 531.889C286.752 531.489 282.855 531.09 280.058 529.692C277.262 528.293 276.264 531.689 278.261 532.689C281.758 534.286 285.352 534.786 289.149 535.386C292.943 535.986 295.342 536.983 298.239 536.385C298.6 536.298 298.922 536.094 299.157 535.804C299.392 535.516 299.524 535.157 299.536 534.786C299.237 531.29 296.64 527.595 295.242 524.498L293.243 526.995L309.824 529.992C312.023 530.392 312.921 527.195 310.724 526.695Z" fill="white"/>
<path d="M302.633 314.24C283.155 310.546 261.98 307.449 243.602 316.739C234.912 321.133 227.619 327.924 220.927 334.917C214.234 341.908 206.943 349.699 201.45 358.09C190.262 375.471 187.366 396.646 176.478 414.127C170.885 423.315 162.494 430.508 157.4 439.896C152.306 449.286 151.207 459.074 148.41 468.764C144.952 480.737 138.607 491.679 129.932 500.627C123.339 507.618 115.948 514.311 113.75 523.999C113.65 524.374 113.674 524.772 113.818 525.131C113.962 525.492 114.219 525.796 114.549 525.998C115.054 526.426 115.647 526.737 116.286 526.91C116.924 527.083 117.594 527.112 118.245 526.996C120.443 526.796 120.443 523.301 118.245 523.601L116.247 523.001L117.047 524.998C119.244 515.51 126.536 509.217 132.928 502.524C139.052 495.984 144.078 488.495 147.811 480.351C151.807 471.361 153.405 461.871 156.002 452.583C159.098 441.695 165.491 434.402 172.383 425.812C184.769 410.43 189.563 392.252 196.955 374.371C201.072 364.695 206.739 355.754 213.736 347.902C219.928 340.811 226.221 333.618 233.512 327.626C242.559 319.828 253.867 315.138 265.775 314.24C277.862 313.242 289.849 315.24 301.734 317.537C303.831 317.936 304.83 314.64 302.633 314.24Z" fill="black"/>
<path d="M287.851 374.17C286.951 388.554 285.652 403.038 277.161 415.223C273.267 420.917 268.473 425.911 264.277 431.504C260.083 437.098 255.686 443.791 251.492 449.985C243.002 462.47 234.611 474.954 226.82 487.941C222.924 494.332 219.329 500.826 215.833 507.517C212.336 514.21 209.34 519.404 204.046 523.798C202.348 525.198 204.745 527.595 206.443 526.197C211.339 522.201 214.733 516.707 217.73 511.213C220.727 505.72 225.221 497.229 229.317 490.438C237.508 476.754 246.498 463.369 255.486 450.085C259.883 443.591 264.277 436.898 269.171 430.707C274.067 424.513 278.361 420.119 282.057 414.126C289.348 402.139 290.348 387.855 291.246 374.17C291.446 371.973 288.049 371.973 287.851 374.17Z" fill="black"/>
<path d="M285.454 401.54C315.919 409.731 342.688 390.153 371.756 385.659C373.953 385.359 373.054 382.062 370.856 382.362C342.488 386.756 316.019 406.234 286.353 398.243C285.917 398.125 285.45 398.184 285.056 398.409C284.662 398.633 284.375 399.006 284.256 399.443C284.136 399.88 284.195 400.347 284.42 400.74C284.646 401.132 285.017 401.422 285.454 401.54Z" fill="black"/>
<path d="M249.694 454.079C251.547 466.189 255.147 477.963 260.384 489.039C262.981 494.732 266.375 500.026 268.375 506.02C270.372 512.011 271.072 515.008 274.366 518.704C275.866 520.302 278.263 517.905 276.863 516.207C273.069 512.111 272.369 506.519 270.372 501.523C268.375 496.53 265.578 492.035 263.279 487.341C258.232 476.505 254.768 465.001 252.991 453.18C252.591 450.982 249.297 451.982 249.694 454.079Z" fill="black"/>
<path d="M311.925 401.039C311.425 408.432 313.922 415.723 316.019 422.614C318.116 429.507 321.113 437.998 323.71 445.588C328.904 460.87 333.7 476.354 334.797 492.635C334.897 494.832 338.294 494.832 338.194 492.635C337.194 477.251 333 462.569 328.106 448.085C325.609 440.694 323.012 433.401 320.713 426.011C318.416 418.62 314.722 409.429 315.32 401.039C315.42 398.842 312.025 398.842 311.925 401.039Z" fill="black"/>
<path d="M204.748 522.901C189.865 518.805 174.782 524.398 159.799 523.099C144.817 521.802 131.532 517.805 118.047 524.199C116.05 525.198 117.848 528.095 119.746 527.195C133.13 520.802 147.713 525.796 161.597 526.696C175.481 527.595 189.865 522.301 203.849 526.196C205.946 526.795 206.845 523.499 204.748 522.901Z" fill="black"/>
<path d="M275.765 520.102C287.252 518.905 297.84 514.511 308.427 510.014C319.015 505.52 329.903 502.523 337.193 494.333C338.593 492.736 336.196 490.237 334.697 491.936C328.105 499.427 317.416 502.523 308.527 506.32C297.94 510.814 287.252 515.408 275.765 516.708C273.568 516.907 273.568 520.402 275.765 520.102Z" fill="black"/>
<path d="M135.328 507.818C143.951 506.802 152.66 506.737 161.298 507.618C163.495 507.818 163.495 504.421 161.298 504.221C152.66 503.34 143.951 503.407 135.328 504.421C133.13 504.721 133.13 508.118 135.328 507.818Z" fill="black"/>
<path d="M166.291 507.317C166.741 507.317 167.173 507.139 167.491 506.821C167.81 506.503 167.989 506.07 167.989 505.62C167.989 505.169 167.81 504.738 167.491 504.42C167.173 504.1 166.741 503.922 166.291 503.922C165.84 503.922 165.409 504.1 165.09 504.42C164.772 504.738 164.593 505.169 164.593 505.62C164.593 506.07 164.772 506.503 165.09 506.821C165.409 507.139 165.84 507.317 166.291 507.317Z" fill="black"/>
<path d="M285.552 501.624C291.446 501.324 296.939 498.727 302.233 496.63C307.67 494.478 312.917 491.873 317.915 488.839C319.814 487.64 318.115 484.745 316.217 485.842C311.487 488.774 306.507 491.281 301.336 493.333C296.34 495.332 291.046 497.929 285.552 498.129C283.355 498.229 283.355 501.724 285.552 501.624Z" fill="black"/>
<path d="M323.708 484.645L325.507 483.745C325.887 483.517 326.162 483.147 326.274 482.719C326.387 482.291 326.325 481.834 326.105 481.448C325.875 481.044 325.495 480.744 325.048 480.614C324.602 480.483 324.12 480.532 323.708 480.748L321.911 481.648C321.542 481.911 321.276 482.297 321.168 482.735C321.058 483.176 321.109 483.639 321.311 484.045C321.574 484.414 321.96 484.68 322.398 484.788C322.839 484.898 323.304 484.847 323.708 484.645Z" fill="black"/>
<path d="M260.082 205.464C251.093 211.558 245.4 220.248 239.406 229.139C233.413 238.027 227.021 248.914 223.025 259.902C215.234 281.377 217.931 304.951 231.815 323.329C233.113 325.027 236.11 323.329 234.812 321.632C221.428 303.852 218.831 281.577 226.322 260.801C229.918 250.914 235.212 241.723 241.006 233.033C246.797 224.343 252.691 214.655 261.781 208.361C263.578 207.164 261.881 204.167 260.082 205.464Z" fill="black"/>
<path d="M342.589 174.6C342.091 175.599 337.395 185.288 342.589 195.277C345.086 199.971 350.282 205.465 356.073 205.965C365.763 206.864 378.148 193.679 381.145 171.904L342.589 174.6Z" fill="white"/>
<path d="M351.177 288.37C359.868 287.571 369.058 286.671 377.248 290.168C385.437 293.664 391.63 300.355 398.723 305.149C411.808 313.94 427.589 320.333 443.571 316.736C457.255 313.64 473.236 305.549 482.027 294.262C490.817 282.976 493.514 263.499 491.517 248.515C489.518 233.533 482.926 218.349 469.242 210.858C468.865 210.707 468.447 210.697 468.061 210.83C467.677 210.96 467.353 211.226 467.147 211.577C466.941 211.927 466.87 212.339 466.941 212.739C467.014 213.139 467.229 213.5 467.543 213.755C480.23 220.746 486.223 234.93 488.12 248.715C490.017 262.499 488.22 282.077 477.933 293.864C473.236 299.158 467.045 302.952 460.852 306.249C454.658 309.545 445.468 313.64 437.077 314.24C421.296 315.439 406.914 307.148 394.727 298.058C388.234 293.364 382.342 287.671 374.451 285.573C366.559 283.474 358.868 284.274 351.177 284.974C348.98 285.174 348.98 288.568 351.177 288.37Z" fill="black"/>
<path d="M401.22 231.436C405.515 240.024 414.905 253.809 401.42 259.103C393.73 262.099 384.939 261.302 376.949 262.999C362.377 266.083 349.076 273.501 338.792 284.274C337.293 285.873 339.69 288.27 341.189 286.671C347.656 279.898 355.394 274.468 363.962 270.69C373.652 266.495 383.34 265.696 393.63 264.396C400.421 263.499 409.511 261.302 411.608 253.609C413.705 245.918 407.712 236.63 404.117 229.737C403.118 227.74 400.221 229.537 401.22 231.436Z" fill="black"/>
<path d="M350.877 284.974C347.311 285.041 343.741 284.906 340.19 284.574C337.993 284.374 337.993 287.771 340.19 287.971C342.387 288.17 347.283 288.57 350.877 288.47C354.474 288.37 353.074 284.974 350.877 284.974Z" fill="black"/>
<path d="M293.145 217.252C292.278 228.172 291.579 239.059 291.046 249.914C290.946 252.111 294.343 252.111 294.443 249.914C294.943 239.027 295.642 228.139 296.64 217.252C296.84 215.053 293.343 215.053 293.145 217.252Z" fill="black"/>
<path d="M352.478 227.14C356.872 227.14 356.872 220.349 352.478 220.349C348.082 220.349 348.082 227.14 352.478 227.14Z" fill="#F7941E"/>
<path d="M355.571 255.608C359.967 255.608 359.967 248.815 355.571 248.815C351.177 248.815 351.177 255.608 355.571 255.608Z" fill="#F7941E"/>
<path d="M269.171 199.172C273.167 200.77 277.461 201.569 281.458 203.267C285.703 205.171 289.538 207.886 292.745 211.258C294.342 212.756 296.739 210.359 295.142 208.861C291.882 205.426 288.025 202.617 283.755 200.571C279.359 198.473 274.565 197.674 270.07 195.876C267.973 195.077 267.074 198.373 269.171 199.172Z" fill="#F7941E"/>
<path d="M458.155 200.371C447.421 201.036 437.068 204.592 428.19 210.659C420.099 216.252 410.109 223.845 406.015 233.133C405.115 235.13 408.012 236.83 408.912 234.833C412.806 226.242 422.396 218.849 429.887 213.555C438.253 207.801 448.021 204.418 458.155 203.767C460.352 203.568 460.352 200.172 458.155 200.371Z" fill="#F7941E"/>
<path d="M365.361 161.915C363.364 163.613 354.674 170.305 345.583 168.008C332.399 164.612 325.408 143.836 332.399 130.152C335.196 124.458 341.589 117.766 349.58 117.566C366.161 117.166 374.849 145.234 375.249 146.433C379.245 160.117 385.139 180.394 371.754 196.575C364.062 205.865 355.473 206.564 349.28 203.767C343.086 200.97 332.299 174.101 345.583 168.008" fill="white"/>
<path d="M355.873 207.462C353.29 207.47 350.736 206.925 348.382 205.865C343.688 203.667 337.194 190.082 337.194 179.694C337.194 174.9 338.494 171.204 340.991 168.607C336.27 165.846 332.559 161.645 330.403 156.621C326.307 147.631 326.307 137.043 330.303 129.052C334.298 121.062 340.991 115.468 349.581 115.268H349.981C368.06 115.268 377.05 144.535 377.35 145.733C381.344 158.918 387.837 180.793 373.453 198.073C368.259 204.265 362.066 207.462 355.873 207.462ZM345.985 170.405C343.188 172.003 341.79 175.099 341.79 179.694C341.79 189.683 348.182 200.77 350.281 201.669C352.378 202.568 361.466 205.265 369.957 195.077C382.743 179.794 376.95 160.117 373.053 147.132C372.954 146.832 364.663 119.763 349.981 119.763H349.681C342.988 119.863 337.194 125.556 334.398 131.05C331.601 136.544 331.103 146.932 334.597 154.623C337.194 160.416 341.491 164.512 346.185 165.71C353.676 167.608 361.068 162.414 363.963 160.017C364.194 159.784 364.471 159.603 364.775 159.486C365.081 159.369 365.408 159.318 365.734 159.337C366.06 159.357 366.379 159.446 366.668 159.598C366.958 159.75 367.211 159.962 367.413 160.221C367.613 160.479 367.758 160.776 367.833 161.094C367.909 161.412 367.917 161.743 367.856 162.064C367.794 162.385 367.664 162.69 367.476 162.957C367.286 163.224 367.044 163.447 366.76 163.613C363.565 166.31 355.075 172.203 345.985 170.405Z" fill="black"/>
<path d="M340.591 167.209C328.106 179.295 338.694 206.064 355.075 208.262C359.618 208.943 364.255 207.986 368.16 205.565C372.154 203.068 374.453 198.473 376.65 194.478C381.244 185.988 385.638 175.899 385.041 166.11C384.741 161.715 377.848 161.715 378.148 166.11C378.647 173.003 376.05 179.994 373.154 186.187C370.257 192.38 366.86 200.871 359.069 201.67C351.279 202.469 346.285 196.476 343.988 189.783C341.691 183.091 340.791 176.499 345.385 172.104C349.981 167.709 343.788 164.213 340.591 167.209Z" fill="#F7941E"/>
<path d="M340.89 168.307C342.263 169.11 343.742 169.715 345.284 170.105C345.5 170.166 345.727 170.183 345.951 170.155C346.174 170.127 346.39 170.056 346.584 169.944C346.78 169.833 346.951 169.683 347.088 169.505C347.224 169.327 347.324 169.124 347.383 168.907C347.443 168.69 347.459 168.464 347.432 168.241C347.404 168.018 347.332 167.803 347.222 167.608C347.11 167.412 346.961 167.241 346.782 167.104C346.604 166.967 346.4 166.867 346.184 166.809C344.915 166.501 343.701 165.995 342.587 165.311C342.19 165.086 341.72 165.028 341.28 165.149C340.839 165.271 340.466 165.563 340.241 165.96C340.015 166.357 339.958 166.828 340.078 167.268C340.201 167.708 340.492 168.082 340.89 168.307Z" fill="black"/>
<path d="M363.963 310.543H256.987C255.898 310.533 254.839 310.192 253.947 309.57C253.056 308.946 252.375 308.067 251.993 307.049L227.321 241.124C227.011 240.318 226.903 239.449 227.007 238.59C227.111 237.733 227.421 236.915 227.915 236.206C228.407 235.498 229.066 234.918 229.833 234.523C230.6 234.127 231.452 233.923 232.315 233.931L339.293 234.231C340.382 234.229 341.449 234.563 342.343 235.188C343.236 235.814 343.915 236.701 344.287 237.727L368.959 303.252C369.289 304.064 369.413 304.943 369.32 305.814C369.226 306.685 368.918 307.52 368.424 308.242C367.928 308.964 367.261 309.554 366.484 309.956C365.705 310.357 364.84 310.559 363.963 310.543Z" fill="#F7941E"/>
<path d="M330.102 206.962H314.819C314.211 206.962 313.625 206.722 313.195 206.291C312.764 205.859 312.521 205.275 312.521 204.665C312.521 204.057 312.764 203.472 313.195 203.041C313.625 202.611 314.211 202.369 314.819 202.369H330.102C330.712 202.369 331.296 202.611 331.726 203.041C332.156 203.472 332.399 204.057 332.399 204.665C332.399 205.275 332.156 205.859 331.726 206.291C331.296 206.722 330.712 206.962 330.102 206.962Z" fill="white"/>
<path d="M314.819 222.246C314.211 222.246 313.625 222.003 313.195 221.573C312.764 221.142 312.521 220.557 312.521 219.949V204.665C312.521 204.057 312.764 203.472 313.195 203.041C313.625 202.611 314.211 202.369 314.819 202.369C315.428 202.369 316.014 202.611 316.444 203.041C316.875 203.472 317.118 204.057 317.118 204.665V219.949C317.118 220.557 316.875 221.142 316.444 221.573C316.014 222.003 315.428 222.246 314.819 222.246Z" fill="white"/>
<path d="M330.102 222.246C329.804 222.246 329.51 222.187 329.237 222.071C328.964 221.952 328.717 221.783 328.511 221.567C328.307 221.353 328.146 221.1 328.042 220.82C327.938 220.543 327.891 220.245 327.905 219.949V204.665C327.834 204.331 327.838 203.985 327.919 203.653C327.999 203.32 328.152 203.009 328.366 202.744C328.582 202.478 328.854 202.263 329.164 202.116C329.472 201.969 329.81 201.893 330.151 201.893C330.494 201.893 330.832 201.969 331.14 202.116C331.448 202.263 331.722 202.478 331.936 202.744C332.152 203.009 332.305 203.32 332.385 203.653C332.466 203.985 332.47 204.331 332.399 204.665V219.949C332.399 220.559 332.156 221.142 331.726 221.573C331.295 222.003 330.712 222.246 330.102 222.246Z" fill="white"/>
<path d="M330.103 222.245H314.819C314.485 222.317 314.14 222.313 313.807 222.231C313.473 222.151 313.163 221.998 312.898 221.782C312.632 221.568 312.418 221.297 312.269 220.987C312.122 220.679 312.047 220.34 312.047 219.997C312.047 219.656 312.122 219.318 312.269 219.01C312.418 218.7 312.632 218.428 312.898 218.212C313.163 217.998 313.473 217.845 313.807 217.765C314.14 217.684 314.485 217.68 314.819 217.751H330.103C330.437 217.68 330.784 217.684 331.117 217.765C331.449 217.845 331.759 217.998 332.025 218.212C332.292 218.428 332.506 218.7 332.653 219.01C332.8 219.318 332.877 219.656 332.877 219.997C332.877 220.34 332.8 220.679 332.653 220.987C332.506 221.297 332.292 221.568 332.025 221.782C331.759 221.998 331.449 222.151 331.117 222.231C330.784 222.313 330.437 222.317 330.103 222.245Z" fill="white"/>
<path d="M330.102 210.359H314.819C314.211 210.359 313.625 210.118 313.195 209.688C312.764 209.255 312.521 208.672 312.521 208.062C312.521 207.454 312.764 206.868 313.195 206.438C313.625 206.007 314.211 205.765 314.819 205.765H330.102C330.712 205.765 331.296 206.007 331.726 206.438C332.156 206.868 332.399 207.454 332.399 208.062C332.399 208.672 332.156 209.255 331.726 209.688C331.296 210.118 330.712 210.359 330.102 210.359Z" fill="white"/>
<path d="M91.076 388.555C87.4803 388.555 85.882 383.361 85.1829 378.367C80.3885 377.767 74.0957 376.268 74.0957 372.274C74.0957 368.277 80.1886 366.88 84.983 366.28C85.4824 361.686 86.881 354.393 91.076 354.393C95.2713 354.393 96.7695 361.686 97.2689 366.28C101.964 366.88 108.157 368.377 108.157 372.274C108.157 376.168 101.864 377.767 97.0692 378.367C96.3701 383.361 94.7719 388.555 91.076 388.555ZM79.2895 372.274C81.8655 373.312 84.6044 373.887 87.3804 373.971L89.2782 374.171L89.4779 376.07C89.6634 378.53 90.2017 380.952 91.076 383.261C92.0495 380.978 92.624 378.547 92.7741 376.07V374.171L94.7719 373.971C97.5463 373.875 100.283 373.3 102.863 372.274C101.664 371.674 99.0669 370.974 94.8717 370.576H92.8739V368.577C92.5744 363.983 91.7754 361.086 91.076 359.787C90.0279 362.604 89.4541 365.574 89.378 368.577V370.576H87.3804C83.0852 370.974 80.4883 371.674 79.2895 372.274Z" fill="#F7941E"/>
<path d="M45.629 431.505C42.7324 431.505 41.4338 427.811 40.8346 424.114C36.8391 423.614 32.8438 422.317 32.8438 419.22C32.8438 416.124 36.7393 414.824 40.7347 414.326C41.1343 410.43 42.3328 405.736 45.629 405.736C48.9253 405.736 50.2237 410.43 50.6234 414.326C54.6187 414.824 58.5143 416.124 58.5143 419.22C58.5143 422.317 54.5187 423.614 50.5234 424.114C49.9241 427.811 48.6256 431.505 45.629 431.505ZM39.2365 419.22C40.4872 419.481 41.7559 419.649 43.0319 419.72L44.9299 419.92L45.1297 421.817C45.3294 423.215 45.4293 424.214 45.629 425.014C45.884 423.959 46.084 422.892 46.2284 421.817V419.92L48.2262 419.72C49.5014 419.643 50.7696 419.475 52.0216 419.22C50.7853 418.867 49.511 418.665 48.2262 418.62H46.3284L46.1284 416.623C46.0831 415.14 45.8822 413.667 45.5291 412.227C45.2251 413.678 45.025 415.146 44.9299 416.623V418.62H42.9322C41.6808 418.674 40.4401 418.873 39.2365 419.22Z" fill="black"/>
<path d="M490.519 117.466C486.225 117.466 484.525 110.574 483.828 105.38C478.134 104.781 470.541 103.083 470.541 98.5878C470.541 94.0929 478.034 92.3948 483.628 91.7956C484.027 86.4017 485.625 77.7117 490.519 77.7117C495.413 77.7117 496.912 86.4017 497.412 91.7956C503.006 92.3948 510.396 94.0929 510.396 98.5878C510.396 103.083 502.806 104.781 497.212 105.38C496.512 110.574 494.815 117.466 490.519 117.466ZM475.437 98.5878C476.634 99.2869 480.031 100.585 486.025 100.985L487.922 101.185L488.122 103.083C488.622 108.576 489.719 111.573 490.519 112.572C491.218 111.573 492.316 108.576 492.816 103.083L493.016 101.185L494.913 100.985C501.006 100.585 504.303 99.2869 505.503 98.5878C504.303 97.7887 501.006 96.59 495.113 96.0906H493.116V94.0929C492.716 87.5004 491.418 83.9047 490.619 82.606C489.819 83.9047 488.422 87.5004 488.022 94.0929V96.0906H486.125C479.931 96.59 476.634 97.7887 475.437 98.5878Z" fill="black"/>
<path d="M171.686 425.611C170.494 425.611 169.351 425.138 168.508 424.295C167.665 423.453 167.191 422.308 167.191 421.117V127.454C167.191 126.262 167.665 125.119 168.508 124.276C169.351 123.433 170.494 122.959 171.686 122.959C172.878 122.959 174.022 123.433 174.864 124.276C175.707 125.119 176.181 126.262 176.181 127.454V421.117C176.181 422.308 175.707 423.453 174.864 424.295C174.022 425.138 172.878 425.611 171.686 425.611Z" fill="black"/>
<path d="M191.062 53.0403H144.815C142.705 53.0264 140.646 53.6877 138.939 54.9277C137.232 56.1678 135.966 57.9214 135.326 59.9324L109.856 142.537C109.402 144.019 109.302 145.586 109.565 147.113C109.828 148.64 110.446 150.083 111.37 151.327C112.293 152.572 113.496 153.581 114.881 154.275C116.267 154.969 117.795 155.328 119.345 155.323H223.425C225.032 155.319 226.613 154.924 228.035 154.171C229.455 153.418 230.669 152.331 231.575 151.003C232.48 149.675 233.047 148.146 233.229 146.549C233.411 144.952 233.198 143.335 232.615 141.838L200.152 59.333C199.447 57.4903 198.203 55.9036 196.581 54.7806C194.959 53.6578 193.035 53.0511 191.062 53.0403Z" fill="#166E94"/>
<path d="M123.241 144.036H168.988C169.439 144.036 169.871 143.857 170.189 143.538C170.508 143.22 170.687 142.788 170.687 142.337C170.687 141.887 170.508 141.455 170.189 141.137C169.871 140.818 169.439 140.639 168.988 140.639H123.241C122.791 140.639 122.359 140.818 122.04 141.137C121.722 141.455 121.543 141.887 121.543 142.337C121.543 142.788 121.722 143.22 122.04 143.538C122.359 143.857 122.791 144.036 123.241 144.036Z" fill="black"/>
<path d="M177.079 144.036H192.761C193.211 144.036 193.643 143.857 193.962 143.538C194.28 143.22 194.459 142.788 194.459 142.337C194.459 141.887 194.28 141.455 193.962 141.137C193.643 140.818 193.211 140.639 192.761 140.639H177.079C176.629 140.639 176.197 140.818 175.878 141.137C175.56 141.455 175.381 141.887 175.381 142.337C175.381 142.788 175.56 143.22 175.878 143.538C176.197 143.857 176.629 144.036 177.079 144.036Z" fill="black"/>
<path d="M94.9724 169.407L105.66 164.912C107.658 164.113 106.859 160.816 104.761 161.615L94.0736 166.11C92.0758 166.909 92.8749 170.305 94.9724 169.407Z" fill="#F7941E"/>
<path d="M234.213 169.107C237.364 173.903 242.103 177.439 247.597 179.096C249.694 179.795 250.594 176.499 248.497 175.799C243.874 174.4 239.882 171.433 237.209 167.409C235.912 165.511 233.015 167.309 234.213 169.107Z" fill="#F7941E"/>
<path d="M211.04 175.6C212.839 180.441 215.514 184.91 218.931 188.785C220.428 190.383 222.825 187.986 221.428 186.288C218.341 182.917 215.932 178.983 214.335 174.701C213.537 172.603 210.24 173.502 211.04 175.6Z" fill="#F7941E"/>
<path d="M142.518 172.004L135.926 192.48C135.227 194.578 138.523 195.477 139.222 193.479L145.815 172.903C146.514 170.805 143.218 169.906 142.518 172.004Z" fill="#F7941E"/>
<path d="M282.256 248.615C297.74 247.718 313.221 247.618 328.703 248.117C329.1 248.117 329.482 247.958 329.763 247.677C330.043 247.397 330.202 247.016 330.202 246.618C330.202 246.22 330.043 245.839 329.763 245.559C329.482 245.278 329.1 245.121 328.703 245.121C313.221 244.621 297.74 244.721 282.256 245.618C280.359 245.718 280.359 248.715 282.256 248.615Z" fill="black"/>
<path d="M258.184 250.612H269.371C269.769 250.612 270.151 250.455 270.432 250.173C270.712 249.894 270.871 249.512 270.871 249.115C270.871 248.717 270.712 248.335 270.432 248.056C270.151 247.774 269.769 247.615 269.371 247.615H258.184C257.788 247.615 257.407 247.774 257.125 248.056C256.844 248.335 256.687 248.717 256.687 249.115C256.687 249.512 256.844 249.894 257.125 250.173C257.407 250.455 257.788 250.612 258.184 250.612Z" fill="black"/>
<path d="M328.502 122.46C328.9 122.46 329.282 122.302 329.563 122.021C329.845 121.74 330.002 121.359 330.002 120.962C330.002 120.565 329.845 120.184 329.563 119.903C329.282 119.622 328.9 119.464 328.502 119.464C328.107 119.464 327.725 119.622 327.443 119.903C327.162 120.184 327.005 120.565 327.005 120.962C327.005 121.359 327.162 121.74 327.443 122.021C327.725 122.302 328.107 122.46 328.502 122.46Z" fill="black"/>
<path d="M387.037 151.027C375.85 138.442 369.158 121.661 367.259 104.98C367.359 103.182 367.459 101.484 367.659 99.6864C367.657 99.442 367.592 99.2023 367.467 98.9915C367.343 98.7806 367.167 98.6058 366.955 98.4846C366.743 98.3634 366.502 98.2998 366.257 98.3004C366.013 98.3008 365.774 98.3655 365.562 98.4877C362.065 101.085 358.971 104.181 356.372 107.677C353.175 101.384 352.877 94.2926 352.677 87.3005C352.677 85.9021 350.678 85.203 350.08 86.6014C347.718 91.2569 346.388 96.3677 346.184 101.584C343.477 99.19 341.241 96.3106 339.591 93.0939C338.893 91.6955 337.094 92.4946 336.894 93.793C336.396 98.5876 336.096 103.282 335.996 108.077C333.303 105.783 330.798 103.278 328.503 100.585C328.297 100.398 328.04 100.272 327.765 100.223C327.489 100.174 327.204 100.203 326.945 100.307C326.686 100.411 326.459 100.586 326.294 100.812C326.127 101.037 326.029 101.305 326.006 101.584C326.406 104.98 326.806 108.476 327.106 111.872L322.212 108.576C321.969 108.418 321.683 108.338 321.396 108.348C321.106 108.358 320.827 108.458 320.598 108.633C320.368 108.809 320.198 109.051 320.111 109.327C320.025 109.603 320.025 109.899 320.115 110.174C322.812 118.265 325.508 126.256 328.305 134.347C328.903 136.144 331.6 135.345 331.002 133.647C330.78 132.768 330.515 131.901 330.203 131.05C330.449 130.949 330.657 130.775 330.802 130.551C331.9 128.353 332.699 125.956 334.397 124.158C336.102 122.452 338.097 121.065 340.29 120.063C344.797 117.71 349.791 116.444 354.874 116.367C356.572 117.865 358.569 119.164 360.368 120.463C360.564 120.625 360.811 120.714 361.068 120.714C361.323 120.714 361.57 120.625 361.765 120.463C361.982 121.419 362.147 122.386 362.265 123.359C362.465 124.658 364.062 124.658 364.762 123.859C364.848 124.093 364.997 124.3 365.189 124.458C365.382 124.616 365.615 124.719 365.862 124.758C366.362 126.955 366.859 129.053 367.459 131.15C367.516 131.431 367.657 131.689 367.865 131.887C368.071 132.085 368.334 132.215 368.618 132.259C368.901 132.302 369.191 132.258 369.448 132.131C369.707 132.004 369.919 131.801 370.056 131.55L372.153 136.144C371.902 136.128 371.649 136.181 371.423 136.297C371.198 136.414 371.009 136.589 370.876 136.804C370.743 137.019 370.67 137.267 370.666 137.52C370.664 137.773 370.729 138.023 370.856 138.242C372.155 140.593 373.695 142.802 375.45 144.834C375.762 145.719 376.029 146.619 376.249 147.531C375.927 147.737 375.694 148.059 375.603 148.431C375.509 148.802 375.562 149.195 375.75 149.529C375.77 149.741 375.837 149.946 375.95 150.128C376.052 150.355 376.223 150.544 376.437 150.669C376.651 150.794 376.9 150.85 377.149 150.828C377.259 151.064 377.426 151.269 377.637 151.426C377.845 151.583 378.089 151.686 378.347 151.727L376.249 152.526C376.007 152.703 375.823 152.949 375.721 153.231C375.621 153.514 375.607 153.821 375.682 154.112C375.758 154.402 375.919 154.664 376.145 154.862C376.37 155.06 376.651 155.186 376.949 155.223C379.746 155.023 383.74 155.422 386.137 153.524C386.392 153.461 386.627 153.335 386.823 153.159C387.017 152.983 387.163 152.762 387.253 152.516C387.343 152.269 387.369 152.004 387.331 151.745C387.294 151.485 387.192 151.239 387.037 151.027Z" fill="black"/>
<path d="M365.863 131.95C365.563 130.851 365.863 129.552 366.861 129.652C367.86 129.752 367.56 129.752 367.96 130.252C368.297 130.728 368.597 131.229 368.86 131.75C368.96 132.149 369.857 134.247 368.66 133.847C367.46 133.448 368.16 132.05 368.26 131.55L367.56 132.349C367.061 132.749 366.561 131.95 367.161 132.949C367.387 133.249 367.556 133.587 367.66 133.947C368.36 135.646 371.057 134.946 370.457 133.148C369.857 131.35 369.16 130.052 367.66 129.652C366.163 129.253 365.263 130.951 365.363 132.349C365.463 133.748 365.863 136.045 367.36 136.544C368.079 136.775 368.842 136.814 369.578 136.656C370.314 136.498 370.998 136.15 371.557 135.646C372.754 134.247 372.154 132.349 371.557 130.851C370.957 129.353 369.957 127.655 368.56 126.956C367.161 126.256 365.163 126.856 363.964 127.555C363.262 127.99 362.736 128.66 362.479 129.446C362.224 130.232 362.254 131.084 362.566 131.85C363.166 133.548 365.863 132.849 365.263 131.051L365.863 131.95Z" fill="white"/>
<path d="M492.415 193.678C513.193 201.669 513.892 229.237 515.589 247.817C517.554 269.465 518.321 291.208 517.887 312.942C517.787 314.839 520.783 314.839 520.883 312.942C521.385 287.925 520.284 262.903 517.587 238.027C515.589 220.048 512.393 198.173 493.215 190.782C491.418 190.082 490.618 192.979 492.415 193.678Z" fill="white"/>
<path d="M521.184 328.023C521.833 344.253 521.331 360.508 519.684 376.667C519.484 378.564 522.481 378.564 522.681 376.667C524.327 360.508 524.829 344.253 524.181 328.023C524.081 326.026 521.084 326.026 521.184 328.023Z" fill="white"/>
<path d="M390.334 384.46C389.834 371.673 389.034 358.889 389.134 346.104C389.234 340.61 389.834 328.523 397.325 327.626C404.816 326.726 403.018 340.71 403.018 345.904C403.018 346.302 403.175 346.681 403.457 346.963C403.738 347.244 404.12 347.401 404.516 347.401C404.913 347.401 405.295 347.244 405.576 346.963C405.858 346.681 406.015 346.302 406.015 345.904C406.015 341.308 406.315 336.514 406.015 332.02C405.815 329.723 405.215 327.626 403.318 326.126C398.724 322.53 392.731 325.227 389.834 329.523C385.438 336.314 386.037 345.404 386.237 353.095C386.637 363.483 386.937 373.97 387.337 384.46C387.337 384.856 387.494 385.237 387.775 385.519C388.057 385.8 388.436 385.957 388.834 385.957C389.232 385.957 389.613 385.8 389.895 385.519C390.174 385.237 390.334 384.856 390.334 384.46Z" fill="white"/>
<path d="M565.234 457.874C562.237 457.874 560.937 453.779 560.34 449.783C556.443 449.285 551.449 448.086 551.449 444.789C551.449 441.492 556.343 440.195 560.24 439.795C560.637 435.601 561.837 430.307 565.234 430.307C568.628 430.307 569.928 435.601 570.327 439.795C574.222 440.195 579.118 441.492 579.118 444.789C579.118 448.086 574.024 449.285 570.127 449.783C569.628 453.779 568.33 457.874 565.234 457.874ZM556.243 444.789C558.216 445.43 560.264 445.801 562.337 445.889H564.034V447.586C564.187 449.422 564.554 451.231 565.134 452.98C565.758 451.24 566.16 449.428 566.331 447.586V445.889H568.03C570.07 445.815 572.09 445.444 574.024 444.789C572.145 444.047 570.15 443.641 568.13 443.592H566.431V441.792C566.364 439.54 565.925 437.312 565.134 435.201C564.44 437.335 564.036 439.552 563.934 441.792V443.592H562.237C560.187 443.657 558.161 444.063 556.243 444.789Z" fill="black"/>
</svg>
