<svg width="18" height="18" viewBox="0 0 18 18" fill="none" xmlns="http://www.w3.org/2000/svg">
<path d="M15.375 11.8709C13.4989 16.317 7.39805 17.6126 3.90107 14.1481C0.472113 10.751 1.5337 4.59662 6.0424 2.625" stroke="#6F6F6F" stroke-width="1.5" stroke-linecap="round"/>
<path d="M13.2624 9.375C14.6781 9.375 15.3859 9.375 15.8431 8.74124C15.8602 8.71755 15.8886 8.67506 15.9039 8.65021C16.3145 7.98533 16.1029 7.4745 15.6797 6.45284C15.296 5.5264 14.7335 4.68462 14.0245 3.97555C13.3154 3.26648 12.4736 2.70402 11.5472 2.32028C10.5255 1.89709 10.0147 1.6855 9.34979 2.09608C9.32494 2.11142 9.28245 2.13982 9.25876 2.1569C8.625 2.61405 8.625 3.32192 8.625 4.73765V6.32061C8.625 7.76046 8.625 8.48039 9.07231 8.92769C9.51961 9.375 10.2395 9.375 11.6794 9.375H13.2624Z" stroke="#6F6F6F" stroke-width="1.5"/>
</svg>
