<svg width="85" height="16" viewBox="0 0 85 16" fill="none" xmlns="http://www.w3.org/2000/svg">
<path d="M1.54 13.26V2.74C1.54 2.06 1.32 1.32 0.52 1.16V0.999999H5.52V1.16C4.72 1.3 4.5 2.02 4.5 2.7V13.3C4.5 13.98 4.72 14.7 5.52 14.84V15H0.52V14.84C1.32 14.68 1.54 13.94 1.54 13.26ZM10.3594 6.62V13.1C10.3594 13.76 10.5794 14.52 11.3794 14.64V15H6.37938V14.64C7.17937 14.52 7.39938 13.76 7.39938 13.1V2.94C7.39938 2.26 7.17937 1.46 6.37938 1.36V0.999999H16.4194L16.6394 3.9H16.2594C15.9794 2.62 14.8194 1.36 12.7394 1.36H10.3594V6.26H13.2394C13.8994 6.26 14.6594 6.02 14.7794 5.22C14.7994 5.08 15.1194 5.08 15.1394 5.22V7.66H14.7794C14.6594 6.84 13.8794 6.62 13.2194 6.62H10.3594ZM21.0625 1.36V7.14H22.7425C24.4225 7.14 25.5025 5.7 25.5025 3.98C25.5025 1.9 24.4625 1.36 23.2625 1.36H21.0625ZM25.1425 13.4L22.0425 7.5H21.0625V13.28C21.0625 13.86 21.2825 14.54 22.0825 14.64V15H17.0825V14.64C17.8825 14.52 18.1025 13.76 18.1025 13.1V2.94C18.1025 2.26 17.8825 1.46 17.0825 1.36V0.999999H24.1425C25.8625 0.999999 28.4025 1.26 28.4025 4.1C28.4025 6.12 27.0625 6.98 25.2225 7.3L28.5225 13.5C29.0425 14.5 29.5825 14.68 29.8225 14.62V14.98C29.5625 15 28.8025 15.08 28.2825 15.08C26.8825 15.08 25.7425 14.56 25.1425 13.4ZM37.8652 12.14C37.8652 8.78 30.7052 8.88 30.7052 4.68C30.7052 2.58 32.5052 0.999999 35.3652 0.999999C37.8452 0.999999 39.6652 2.2 39.6652 3.88C39.6652 4.98 38.8252 5.8 37.6852 5.8C36.7052 5.8 36.0252 5.16 35.6252 4.4C36.5652 4.46 36.8452 3.6 36.8452 2.94C36.8452 2.06 36.3052 1.4 35.1452 1.4C34.0252 1.4 33.0052 2.04 33.0052 3.24C33.0052 6.52 40.6052 6.74 40.6052 10.96C40.6052 13.5 37.8652 15.1 35.0852 15.1C32.2452 15.1 30.1052 13.44 30.1052 11.7C30.1052 10.6 30.9452 9.8 32.0852 9.8C33.0852 9.8 33.7652 10.44 34.1452 11.2C33.2252 11.14 32.9252 12.04 32.9252 12.66C32.9252 13.64 33.7452 14.6 35.1452 14.6C36.5452 14.6 37.8652 13.62 37.8652 12.14ZM46.2984 1.24C45.1184 1.24 44.2784 2.76 44.2784 5.14C44.2784 7.42 45.0384 8.92 46.2784 8.92C47.4384 8.92 48.6184 7.62 48.6584 6.3C48.5984 3.64 47.7784 1.24 46.2984 1.24ZM46.3584 0.879999C49.6384 0.879999 51.6384 3.24 51.6384 6.74C51.6384 11.26 48.3384 15.04 44.4784 15.04V14.68C46.2584 14.68 48.2584 11.76 48.5984 7.84C47.9984 8.98 46.7584 9.84 45.2384 9.84C43.0384 9.84 41.2984 8 41.2984 5.5C41.2984 2.72 43.4784 0.879999 46.3584 0.879999ZM56.5313 1.36V7.14H57.9913C58.9513 7.14 60.4313 6.44 60.4313 3.98C60.4313 1.9 59.5313 1.36 58.4713 1.36H56.5313ZM58.0313 7.5H56.5313V13.28C56.5313 13.86 56.7513 14.54 57.5513 14.64V15H52.5513V14.64C53.3512 14.52 53.5713 13.76 53.5713 13.1V2.94C53.5713 2.26 53.3512 1.46 52.5513 1.36V0.999999H59.2713C60.9313 0.999999 63.3513 1.26 63.3513 4.12C63.3513 6.98 60.7913 7.5 58.0313 7.5ZM70.3808 5.98C69.0008 5.98 67.8008 9.64 67.8008 10.28V13.16C67.8008 13.8 68.0208 14.56 68.8208 14.68V15H63.8208V14.68C64.6208 14.56 64.8408 13.78 64.8408 13.1V5.94C64.8408 5.22 64.6008 5.08 64.0008 5.04V4.84L67.6608 4.22L67.8008 4.36V8.66C68.2608 7.24 69.2808 4.38 71.5408 4.38C72.6608 4.38 73.3808 5.1 73.3808 6.12C73.3808 7.02 72.8208 7.74 71.8408 7.74C71.1408 7.74 70.6208 7.36 70.3408 6.82C70.6008 6.82 70.8408 6.58 70.8408 6.34C70.8408 6.16 70.6808 5.98 70.3808 5.98ZM78.5939 15.16C75.3539 15.16 73.0739 12.84 73.0739 9.78C73.0739 6.74 75.3539 4.42 78.5939 4.42C81.8339 4.42 84.0939 6.74 84.0939 9.78C84.0939 12.84 81.8339 15.16 78.5939 15.16ZM80.0939 14.64C81.5539 14.24 81.8139 11.8 81.1139 9.14C80.4739 6.7 78.8539 4.88 77.4739 4.88C77.3539 4.88 77.2339 4.9 77.1139 4.92C75.6539 5.32 75.4139 7.6 76.0539 10.46C76.6539 13.04 78.2939 14.7 79.6739 14.7C79.8139 14.7 79.9539 14.68 80.0939 14.64Z" fill="#166E94"/>
</svg>
