<svg width="37" height="38" viewBox="0 0 37 38" fill="none" xmlns="http://www.w3.org/2000/svg">
<path d="M31.6035 24.9012C27.747 34.0404 15.2065 36.7036 8.01822 29.5822C0.969804 22.5993 3.15195 9.9486 12.4198 5.89581" stroke="#AFAFAF" stroke-width="3.08333" stroke-linecap="round"/>
<path d="M27.2609 19.7708C30.171 19.7708 31.626 19.7708 32.5657 18.4681C32.6008 18.4194 32.6592 18.3321 32.6907 18.281C33.5347 16.9143 33.0998 15.8642 32.2299 13.7642C31.4411 11.8598 30.2849 10.1295 28.8274 8.67195C27.3699 7.21443 25.6395 6.05826 23.7352 5.26945C21.6351 4.39957 20.5851 3.96463 19.2184 4.80859C19.1673 4.84013 19.0799 4.8985 19.0313 4.93362C17.7285 5.87332 17.7285 7.32837 17.7285 10.2385V13.4924C17.7285 16.4521 17.7285 17.9319 18.648 18.8514C19.5674 19.7708 21.0473 19.7708 24.007 19.7708H27.2609Z" stroke="#AFAFAF" stroke-width="3.08333"/>
</svg>
