<svg width="37" height="37" viewBox="0 0 37 37" fill="none" xmlns="http://www.w3.org/2000/svg">
<path d="M3.08337 24.6665C3.08337 21.0607 3.08337 19.2578 3.91042 17.9416C4.3417 17.2552 4.92208 16.6748 5.60845 16.2436C6.92469 15.4165 8.72759 15.4165 12.3334 15.4165H24.6667C28.2725 15.4165 30.0754 15.4165 31.3916 16.2436C32.078 16.6748 32.6584 17.2552 33.0897 17.9416C33.9167 19.2578 33.9167 21.0607 33.9167 24.6665C33.9167 28.2723 33.9167 30.0752 33.0897 31.3914C32.6584 32.0778 32.078 32.6582 31.3916 33.0895C30.0754 33.9165 28.2725 33.9165 24.6667 33.9165H12.3334C8.72759 33.9165 6.92469 33.9165 5.60845 33.0895C4.92208 32.6582 4.3417 32.0778 3.91042 31.3914C3.08337 30.0752 3.08337 28.2723 3.08337 24.6665Z" stroke="#AFAFAF" stroke-width="3.08333" stroke-linecap="round" stroke-linejoin="round"/>
<path d="M30.8334 15.4167C30.8334 13.2581 30.8334 12.1789 30.4133 11.3544C30.0438 10.6292 29.4542 10.0396 28.7289 9.67008C27.9045 9.25 26.8252 9.25 24.6667 9.25H12.3334C10.1748 9.25 9.09555 9.25 8.2711 9.67008C7.54589 10.0396 6.95628 10.6292 6.58677 11.3544C6.16669 12.1789 6.16669 13.2581 6.16669 15.4167" stroke="#AFAFAF" stroke-width="3.08333" stroke-linecap="round" stroke-linejoin="round"/>
<path d="M27.7501 9.24992C27.7501 6.34292 27.7501 4.88943 26.847 3.98634C25.9439 3.08325 24.4904 3.08325 21.5834 3.08325H15.4167C12.5097 3.08325 11.0562 3.08325 10.1531 3.98634C9.25006 4.88943 9.25006 6.34292 9.25006 9.24992" stroke="#AFAFAF" stroke-width="3.08333" stroke-linecap="round" stroke-linejoin="round"/>
<path d="M23.1251 21.5833C23.1251 23.2861 21.7446 24.6666 20.0417 24.6666H16.9584C15.2555 24.6666 13.8751 23.2861 13.8751 21.5833" stroke="#AFAFAF" stroke-width="3.08333" stroke-linecap="round"/>
</svg>
