<svg width="14" height="14" viewBox="0 0 14 14" fill="none" xmlns="http://www.w3.org/2000/svg">
<path d="M12.5667 6.44275C12.744 6.69143 12.8327 6.81578 12.8327 6.99984C12.8327 7.1839 12.744 7.30824 12.5667 7.55693C11.7698 8.67433 9.73473 11.0832 6.99935 11.0832C4.26397 11.0832 2.22891 8.67433 1.43204 7.55693C1.25469 7.30824 1.16602 7.1839 1.16602 6.99984C1.16602 6.81578 1.25469 6.69143 1.43204 6.44275C2.2289 5.32535 4.26397 2.9165 6.99935 2.9165C9.73473 2.9165 11.7698 5.32534 12.5667 6.44275Z" stroke="#1E1E1E" stroke-width="0.875"/>
<path d="M8.74902 6.99976C8.74902 6.03326 7.96552 5.24976 6.99902 5.24976C6.03253 5.24976 5.24902 6.03326 5.24902 6.99976C5.24902 7.96625 6.03253 8.74976 6.99902 8.74976C7.96552 8.74976 8.74902 7.96625 8.74902 6.99976Z" stroke="#1E1E1E" stroke-width="0.875"/>
</svg>
