<svg width="20" height="20" viewBox="0 0 20 20" fill="none" xmlns="http://www.w3.org/2000/svg">
<path d="M1.66699 10.0007C1.66699 9.08018 2.41318 8.33398 3.33366 8.33398C4.71437 8.33398 5.83366 9.45327 5.83366 10.834V14.1673C5.83366 15.548 4.71437 16.6673 3.33366 16.6673C2.41318 16.6673 1.66699 15.9211 1.66699 15.0007V10.0007Z" stroke="#6F6F6F" stroke-width="1.5" stroke-linecap="round" stroke-linejoin="round"/>
<path d="M12.8996 6.08855L12.6777 6.80529C12.4958 7.39259 12.4049 7.68624 12.4748 7.91816C12.5314 8.10579 12.6556 8.26751 12.8248 8.37392C13.034 8.50545 13.3504 8.50545 13.9833 8.50545H14.3199C16.4616 8.50545 17.5325 8.50545 18.0383 9.13942C18.0961 9.21187 18.1475 9.28891 18.192 9.36972C18.5811 10.0768 18.1387 11.0293 17.254 12.9343C16.4421 14.6824 16.0361 15.5565 15.2823 16.071C15.2094 16.1208 15.1344 16.1677 15.0576 16.2118C14.264 16.6667 13.2808 16.6667 11.3143 16.6667H10.8878C8.50542 16.6667 7.31422 16.6667 6.5741 15.9496C5.83398 15.2324 5.83398 14.0783 5.83398 11.7699V10.9586C5.83398 9.74553 5.83398 9.13899 6.04927 8.58383C6.26455 8.02867 6.67678 7.5722 7.50123 6.65926L10.9107 2.8838C10.9963 2.78911 11.039 2.74176 11.0767 2.70896C11.4286 2.40273 11.9717 2.4372 12.2793 2.78529C12.3123 2.82258 12.3483 2.87493 12.4203 2.97961C12.533 3.14337 12.5893 3.22525 12.6384 3.30638C13.078 4.03261 13.211 4.8953 13.0097 5.71429C12.9872 5.80577 12.958 5.90008 12.8996 6.08855Z" stroke="#6F6F6F" stroke-width="1.5" stroke-linecap="round" stroke-linejoin="round"/>
</svg>
